<svg width="106" height="106" viewBox="0 0 106 106" fill="none" xmlns="http://www.w3.org/2000/svg">
<path d="M13.3401 83.2015C12.7149 83.561 12.0492 83.7082 11.343 83.643C10.6336 83.5723 9.96079 83.3121 9.32468 82.8626C8.67969 82.4106 8.13931 81.8088 7.70354 81.0571C7.3263 80.4063 7.09023 79.7529 6.99533 79.0968C6.89154 78.4384 6.93436 77.8192 7.12377 77.239C7.30429 76.6565 7.61864 76.1428 8.06681 75.6981L9.12892 77.5109C8.9251 77.7553 8.7953 78.0431 8.7395 78.3744C8.6837 78.7057 8.68922 79.0391 8.75607 79.3747C8.82292 79.7103 8.92951 80.0043 9.07585 80.2567C9.28723 80.6214 9.56978 80.9339 9.92349 81.1943C10.2739 81.449 10.659 81.6016 11.0788 81.6519C11.4929 81.7055 11.8971 81.619 12.2913 81.3923C12.6913 81.1623 12.9747 80.8609 13.1416 80.4882C13.303 80.1186 13.3605 79.7191 13.3142 79.2894C13.2622 78.863 13.1225 78.4534 12.8948 78.0607C12.6542 77.6455 12.3223 77.3128 11.8993 77.0623C11.473 76.8063 11.0147 76.6959 10.5243 76.731L9.4609 74.8965C10.0838 74.7403 10.6937 74.7299 11.2905 74.8655C11.8816 75.0043 12.4342 75.2774 12.9483 75.6849C13.4624 76.0924 13.9081 76.6216 14.2853 77.2723C14.7179 78.0185 14.9694 78.7827 15.0398 79.565C15.1103 80.3473 14.9989 81.0621 14.7057 81.7094C14.4093 82.3511 13.9541 82.8485 13.3401 83.2015Z" fill="#D99C87"/>
<path d="M6.59705 66.8585L8.44206 71.1876L9.77119 70.6257L7.57004 65.5604L8.98896 64.9606L11.9433 71.8925L5.29767 74.7021L2.34336 67.7701L3.74949 67.1651L5.91853 72.2545L7.05008 71.7761L5.20506 67.447L6.59705 66.8585Z" fill="#D99C87"/>
<path d="M0.158608 60.0369C0.00205401 59.4549 -0.0386051 58.9159 0.0366309 58.4196C0.110184 57.9171 0.290043 57.4969 0.576209 57.159C0.854409 56.8165 1.22282 56.5841 1.68144 56.4617L1.71913 56.4516C2.47931 56.2487 3.12923 56.3368 3.66889 56.7159C4.20059 57.0904 4.58596 57.7219 4.825 58.6105L5.7113 61.9049L7.97298 61.3013L8.4982 63.2535L1.52467 65.1146L0.158608 60.0369ZM3.50943 59.4645C3.41684 59.1204 3.33358 58.8609 3.25963 58.6862C3.17772 58.5068 3.0571 58.3714 2.89778 58.2798C2.7305 58.1836 2.50236 58.174 2.21337 58.2512C1.91809 58.33 1.72217 58.4527 1.62559 58.6193C1.52104 58.7813 1.47915 58.9635 1.49992 59.1659C1.51901 59.362 1.57317 59.6258 1.66239 59.9575L1.75581 60.3047C1.79453 60.4486 1.86501 60.6981 1.96724 61.0531C2.06151 61.4035 2.21723 61.9823 2.43438 62.7895L4.272 62.299L3.50943 59.4645Z" fill="#D99C87"/>
<path d="M5.75584 46.8744V45.9124H8.2534V47.8169H7.32657L7.31682 53.4236H8.2534V55.3281H5.75584V54.6771C4.76071 54.1329 3.83713 53.7345 2.9851 53.4819C2.12656 53.2292 1.16396 53.1029 0.0972885 53.1029V46.8841L5.75584 46.8744ZM1.60949 51.315C2.33794 51.4122 3.03063 51.5774 3.68754 51.8106C4.34445 52.0373 5.03388 52.3353 5.75584 52.7045V48.7692H1.61924L1.60949 51.315Z" fill="#D99C87"/>
<path d="M2.60323 36.1407L3.12592 34.1978L8.59166 35.6565L8.85932 34.6616L11.5922 35.3909L11.0619 37.3619L9.83684 37.035L7.92284 44.1494L0.94931 42.2884L1.472 40.3455L6.93774 41.8042L8.06897 37.5993L2.60323 36.1407Z" fill="#D99C87"/>
<path d="M12.3955 26.1233L10.0345 30.1962L11.285 30.9153L14.0219 26.1161L15.3569 26.8837L11.5764 33.4054L5.32406 29.8102L9.10456 23.2885L10.4359 24.0428L7.66032 28.831L8.7249 29.4432L11.0859 25.3703L12.3955 26.1233Z" fill="#D99C87"/>
<path d="M24.9833 7.76691C25.7381 7.33288 26.4998 7.08564 27.2683 7.02519C28.0336 6.95912 28.7328 7.07695 29.3658 7.37866C29.9956 7.67477 30.491 8.13419 30.8519 8.7569C31.2097 9.37401 31.3598 10.0282 31.3024 10.7195C31.245 11.4107 30.9978 12.0727 30.561 12.7054C30.1209 13.3324 29.5235 13.863 28.7687 14.297C28.0421 14.7148 27.2905 14.96 26.5139 15.0326C25.7397 15.0963 25.0293 14.9849 24.3826 14.6985C23.7327 14.4065 23.2305 13.9548 22.876 13.3433C22.5183 12.7262 22.3722 12.0659 22.4376 11.3626C22.5086 10.656 22.7699 9.98594 23.2212 9.35239C23.6693 8.71323 24.2567 8.18473 24.9833 7.76691ZM27.9736 12.9254C28.3397 12.7148 28.6438 12.4427 28.886 12.109C29.1249 11.7696 29.2644 11.4014 29.3046 11.0043C29.3415 10.6016 29.2461 10.2039 29.0185 9.81119C28.7941 9.42409 28.4976 9.14579 28.129 8.97628C27.7571 8.80116 27.3639 8.73179 26.9494 8.76818C26.5349 8.80457 26.1446 8.92803 25.7784 9.13856C25.401 9.35558 25.0901 9.63537 24.8456 9.97794C24.6034 10.3117 24.4667 10.6783 24.4354 11.0777C24.4041 11.4772 24.5007 11.8705 24.7251 12.2576C24.9527 12.6503 25.2497 12.9358 25.6159 13.1142C25.9845 13.2837 26.3761 13.3503 26.7906 13.3139C27.2075 13.2686 27.6018 13.1391 27.9736 12.9254Z" fill="#D99C87"/>
<path d="M34.4498 4.92833L34.018 3.32336L42.0847 1.17058L34.4498 4.92833ZM42.0847 1.17058L42.519 2.78494L39.4845 3.59475L40.9188 8.92589L38.9587 9.44899L37.5244 4.11785L34.4523 4.93771L34.018 3.32336L42.0847 1.17058Z" fill="#D99C87"/>
<path d="M56.4974 5.63581H57.4633V8.12334H55.5511V7.20023L49.9218 7.19051V8.12334H48.0096V5.63581H48.6633C49.2096 4.64468 49.6096 3.72481 49.8633 2.8762C50.1169 2.02112 50.2438 1.06238 50.2438 0H56.4877L56.4974 5.63581ZM52.0389 1.50612C51.9413 2.23165 51.7755 2.92155 51.5413 3.57582C51.3137 4.23009 51.0145 4.91676 50.6438 5.63581H54.595V1.51584L52.0389 1.50612Z" fill="#D99C87"/>
<path d="M69.5102 10.0334L67.503 9.49774L67.1359 7.9713L62.9612 6.85719L61.877 7.99633L59.8698 7.46065L65.5267 1.52615L67.5999 2.07943L69.5102 10.0334ZM66.086 3.57671L64.1178 5.63677L66.747 6.33844L66.086 3.57671Z" fill="#D99C87"/>
<path d="M80.792 7.68404C81.5468 8.11806 82.1426 8.65142 82.5795 9.2841C83.0196 9.91117 83.2667 10.5731 83.3208 11.27C83.3783 11.9613 83.2265 12.6183 82.8655 13.241C82.5078 13.8581 82.0124 14.3175 81.3794 14.6192C80.7552 14.9186 80.0589 15.038 79.2903 14.9776C78.525 14.9115 77.765 14.6614 77.0102 14.2274C76.3737 13.8614 75.8344 13.4055 75.3924 12.8595C74.9592 12.3112 74.6621 11.729 74.5011 11.1128C74.3489 10.4942 74.3573 9.89686 74.526 9.3207L73.774 8.88829L72.374 11.3034L70.6166 10.2929L74.2264 4.0657L75.9838 5.07626L74.6277 7.41565L75.4219 7.87235C75.848 7.4741 76.3599 7.19996 76.9576 7.04995C77.5641 6.89756 78.1991 6.87748 78.8626 6.9897C79.5293 7.09631 80.1724 7.32775 80.792 7.68404ZM77.8053 12.8558C78.1658 13.0631 78.5517 13.1877 78.963 13.2297C79.3831 13.2693 79.7775 13.2044 80.1461 13.0349C80.5147 12.8654 80.8129 12.5843 81.0405 12.1916C81.2649 11.8045 81.3586 11.4096 81.3217 11.0068C81.2848 10.6041 81.1441 10.2315 80.8995 9.88891C80.6607 9.54958 80.361 9.27627 80.0005 9.06897C79.6118 8.84549 79.2046 8.71231 78.7788 8.66944C78.3531 8.62657 77.953 8.68828 77.5788 8.85455C77.2102 9.02406 76.9136 9.30236 76.6893 9.68945C76.4616 10.0822 76.3691 10.4815 76.4116 10.8874C76.4598 11.2966 76.609 11.6741 76.8591 12.0199C77.1125 12.3601 77.4279 12.6388 77.8053 12.8558Z" fill="#D99C87"/>
<path d="M95.8191 32.4937L96.302 33.3268L94.1391 34.5706L93.183 32.9212L93.9856 32.4597L91.1794 27.5993L90.3683 28.0657L89.4122 26.4164L91.5752 25.1726L91.902 25.7364C93.037 25.7121 94.0368 25.5972 94.9015 25.3917C95.7719 25.1829 96.6689 24.8129 97.5927 24.2817L100.715 29.6674L95.8191 32.4937ZM97.1806 26.5832C96.501 26.8618 95.8182 27.0637 95.1322 27.1889C94.4495 27.3196 93.7028 27.4049 92.8922 27.4447L94.8679 30.8528L98.4502 28.7928L97.1806 26.5832Z" fill="#D99C87"/>
<path d="M100.821 43.2002L99.599 38.6574L98.2043 39.0296L99.6762 44.3507L98.1873 44.7481L96.2303 37.4741L103.204 35.613L105.161 42.887L103.684 43.2913L102.247 37.9507L101.06 38.2676L102.282 42.8104L100.821 43.2002Z" fill="#D99C87"/>
<path d="M104.332 48.808H106V57.1257L104.332 48.808ZM106 57.1257H104.322V53.9968H98.7805V51.9757H104.322V48.808H106V57.1257Z" fill="#D99C87"/>
<path d="M100.32 68.0411C100.809 68.1781 101.016 68.2335 100.942 68.2071L100.32 68.0411ZM96.1817 68.7072L96.6892 66.8206L98.9415 67.4217L99.4819 65.4131L97.7472 62.888L98.3583 60.6166L100.171 63.2633C100.468 62.6853 100.859 62.273 101.342 62.0266C101.824 61.7864 102.364 61.7459 102.961 61.9052L102.998 61.9153C103.457 62.0377 103.826 62.267 104.106 62.6032C104.391 62.9474 104.571 63.3676 104.646 63.8638C104.719 64.3663 104.678 64.9085 104.521 65.4905L103.155 70.5682L96.1817 68.7072ZM102.987 65.5637C103.079 65.2196 103.136 64.9464 103.157 64.744C103.176 64.5479 103.133 64.3688 103.028 64.2068C102.922 64.051 102.718 63.9329 102.417 63.8524C102.134 63.777 101.911 63.7811 101.747 63.8648C101.581 63.9547 101.457 64.0893 101.375 64.2687C101.298 64.4559 101.213 64.7216 101.121 65.0658L100.383 67.8064L102.221 68.2969C102.509 67.2269 102.726 66.4433 102.874 65.946C102.908 65.8414 102.946 65.7139 102.987 65.5637Z" fill="#D99C87"/>
<path d="M96.4268 83.6923L90.1745 80.0971L91.1892 78.3467L94.5519 80.2804L92.1355 76.7142L93.1014 75.048L97.5512 75.2618L94.1209 73.2893L95.1306 71.5473L101.383 75.1426L100.198 77.1875L94.3131 76.8444L97.5927 81.6811L96.4268 83.6923Z" fill="#D99C87"/>
<path d="M13.3401 83.2015C12.7149 83.561 12.0492 83.7082 11.343 83.643C10.6336 83.5723 9.96079 83.3121 9.32468 82.8626C8.67969 82.4106 8.13931 81.8088 7.70354 81.0571C7.3263 80.4063 7.09023 79.7529 6.99533 79.0968C6.89154 78.4384 6.93436 77.8192 7.12377 77.239C7.30429 76.6565 7.61864 76.1428 8.06681 75.6981L9.12892 77.5109C8.9251 77.7553 8.7953 78.0431 8.7395 78.3744C8.6837 78.7057 8.68922 79.0391 8.75607 79.3747C8.82292 79.7103 8.92951 80.0043 9.07585 80.2567C9.28723 80.6214 9.56978 80.9339 9.92349 81.1943C10.2739 81.449 10.659 81.6016 11.0788 81.6519C11.4929 81.7055 11.8971 81.619 12.2913 81.3923C12.6913 81.1623 12.9747 80.8609 13.1416 80.4882C13.303 80.1186 13.3605 79.7191 13.3142 79.2894C13.2622 78.863 13.1225 78.4534 12.8948 78.0607C12.6542 77.6455 12.3223 77.3128 11.8993 77.0623C11.473 76.8063 11.0147 76.6959 10.5243 76.731L9.4609 74.8965C10.0838 74.7403 10.6937 74.7299 11.2905 74.8655C11.8816 75.0043 12.4342 75.2774 12.9483 75.6849C13.4624 76.0924 13.9081 76.6216 14.2853 77.2723C14.7179 78.0185 14.9694 78.7827 15.0398 79.565C15.1103 80.3473 14.9989 81.0621 14.7057 81.7094C14.4093 82.3511 13.9541 82.8485 13.3401 83.2015Z" fill="#D99C87"/>
<path d="M6.59705 66.8585L8.44206 71.1876L9.77119 70.6257L7.57004 65.5604L8.98896 64.9606L11.9433 71.8925L5.29767 74.7021L2.34336 67.7701L3.74949 67.1651L5.91853 72.2545L7.05008 71.7761L5.20506 67.447L6.59705 66.8585Z" fill="#D99C87"/>
<path d="M0.158608 60.0369C0.00205401 59.4549 -0.0386051 58.9159 0.0366309 58.4196C0.110184 57.9171 0.290043 57.4969 0.576209 57.159C0.854409 56.8165 1.22282 56.5841 1.68144 56.4617L1.71913 56.4516C2.47931 56.2487 3.12923 56.3368 3.66889 56.7159C4.20059 57.0904 4.58596 57.7219 4.825 58.6105L5.7113 61.9049L7.97298 61.3013L8.4982 63.2535L1.52467 65.1146L0.158608 60.0369ZM3.50943 59.4645C3.41684 59.1204 3.33358 58.8609 3.25963 58.6862C3.17772 58.5068 3.0571 58.3714 2.89778 58.2798C2.7305 58.1836 2.50236 58.174 2.21337 58.2512C1.91809 58.33 1.72217 58.4527 1.62559 58.6193C1.52104 58.7813 1.47915 58.9635 1.49992 59.1659C1.51901 59.362 1.57317 59.6258 1.66239 59.9575L1.75581 60.3047C1.79453 60.4486 1.86501 60.6981 1.96724 61.0531C2.06151 61.4035 2.21723 61.9823 2.43438 62.7895L4.272 62.299L3.50943 59.4645Z" fill="#D99C87"/>
<path d="M5.75584 46.8744V45.9124H8.2534V47.8169H7.32657L7.31682 53.4236H8.2534V55.3281H5.75584V54.6771C4.76071 54.1329 3.83713 53.7345 2.9851 53.4819C2.12656 53.2292 1.16396 53.1029 0.0972885 53.1029V46.8841L5.75584 46.8744ZM1.60949 51.315C2.33794 51.4122 3.03063 51.5774 3.68754 51.8106C4.34445 52.0373 5.03388 52.3353 5.75584 52.7045V48.7692H1.61924L1.60949 51.315Z" fill="#D99C87"/>
<path d="M2.60323 36.1407L3.12592 34.1978L8.59166 35.6565L8.85932 34.6616L11.5922 35.3909L11.0619 37.3619L9.83684 37.035L7.92284 44.1494L0.94931 42.2884L1.472 40.3455L6.93774 41.8042L8.06897 37.5993L2.60323 36.1407Z" fill="#D99C87"/>
<path d="M12.3955 26.1233L10.0345 30.1962L11.285 30.9153L14.0219 26.1161L15.3569 26.8837L11.5764 33.4054L5.32406 29.8102L9.10456 23.2885L10.4359 24.0428L7.66032 28.831L8.7249 29.4432L11.0859 25.3703L12.3955 26.1233Z" fill="#D99C87"/>
<path d="M24.9833 7.76691C25.7381 7.33288 26.4998 7.08564 27.2683 7.02519C28.0336 6.95912 28.7328 7.07695 29.3658 7.37866C29.9956 7.67477 30.491 8.13419 30.8519 8.7569C31.2097 9.37401 31.3598 10.0282 31.3024 10.7195C31.245 11.4107 30.9978 12.0727 30.561 12.7054C30.1209 13.3324 29.5235 13.863 28.7687 14.297C28.0421 14.7148 27.2905 14.96 26.5139 15.0326C25.7397 15.0963 25.0293 14.9849 24.3826 14.6985C23.7327 14.4065 23.2305 13.9548 22.876 13.3433C22.5183 12.7262 22.3722 12.0659 22.4376 11.3626C22.5086 10.656 22.7699 9.98594 23.2212 9.35239C23.6693 8.71323 24.2567 8.18473 24.9833 7.76691ZM27.9736 12.9254C28.3397 12.7148 28.6438 12.4427 28.886 12.109C29.1249 11.7696 29.2644 11.4014 29.3046 11.0043C29.3415 10.6016 29.2461 10.2039 29.0185 9.81119C28.7941 9.42409 28.4976 9.14579 28.129 8.97628C27.7571 8.80116 27.3639 8.73179 26.9494 8.76818C26.5349 8.80457 26.1446 8.92803 25.7784 9.13856C25.401 9.35558 25.0901 9.63537 24.8456 9.97794C24.6034 10.3117 24.4667 10.6783 24.4354 11.0777C24.4041 11.4772 24.5007 11.8705 24.7251 12.2576C24.9527 12.6503 25.2497 12.9358 25.6159 13.1142C25.9845 13.2837 26.3761 13.3503 26.7906 13.3139C27.2075 13.2686 27.6018 13.1391 27.9736 12.9254Z" fill="#D99C87"/>
<path d="M34.4498 4.92833L34.018 3.32336L42.0847 1.17058L34.4498 4.92833ZM42.0847 1.17058L42.519 2.78494L39.4845 3.59475L40.9188 8.92589L38.9587 9.44899L37.5244 4.11785L34.4523 4.93771L34.018 3.32336L42.0847 1.17058Z" fill="#D99C87"/>
<path d="M56.4974 5.63581H57.4633V8.12334H55.5511V7.20023L49.9218 7.19051V8.12334H48.0096V5.63581H48.6633C49.2096 4.64468 49.6096 3.72481 49.8633 2.8762C50.1169 2.02112 50.2438 1.06238 50.2438 0H56.4877L56.4974 5.63581ZM52.0389 1.50612C51.9413 2.23165 51.7755 2.92155 51.5413 3.57582C51.3137 4.23009 51.0145 4.91676 50.6438 5.63581H54.595V1.51584L52.0389 1.50612Z" fill="#D99C87"/>
<path d="M69.5102 10.0334L67.503 9.49774L67.1359 7.9713L62.9612 6.85719L61.877 7.99633L59.8698 7.46065L65.5267 1.52615L67.5999 2.07943L69.5102 10.0334ZM66.086 3.57671L64.1178 5.63677L66.747 6.33844L66.086 3.57671Z" fill="#D99C87"/>
<path d="M80.792 7.68404C81.5468 8.11806 82.1426 8.65142 82.5795 9.2841C83.0196 9.91117 83.2667 10.5731 83.3208 11.27C83.3783 11.9613 83.2265 12.6183 82.8655 13.241C82.5078 13.8581 82.0124 14.3175 81.3794 14.6192C80.7552 14.9186 80.0589 15.038 79.2903 14.9776C78.525 14.9115 77.765 14.6614 77.0102 14.2274C76.3737 13.8614 75.8344 13.4055 75.3924 12.8595C74.9592 12.3112 74.6621 11.729 74.5011 11.1128C74.3489 10.4942 74.3573 9.89686 74.526 9.3207L73.774 8.88829L72.374 11.3034L70.6166 10.2929L74.2264 4.0657L75.9838 5.07626L74.6277 7.41565L75.4219 7.87235C75.848 7.4741 76.3599 7.19996 76.9576 7.04995C77.5641 6.89756 78.1991 6.87748 78.8626 6.9897C79.5293 7.09631 80.1724 7.32775 80.792 7.68404ZM77.8053 12.8558C78.1658 13.0631 78.5517 13.1877 78.963 13.2297C79.3831 13.2693 79.7775 13.2044 80.1461 13.0349C80.5147 12.8654 80.8129 12.5843 81.0405 12.1916C81.2649 11.8045 81.3586 11.4096 81.3217 11.0068C81.2848 10.6041 81.1441 10.2315 80.8995 9.88891C80.6607 9.54958 80.361 9.27627 80.0005 9.06897C79.6118 8.84549 79.2046 8.71231 78.7788 8.66944C78.3531 8.62657 77.953 8.68828 77.5788 8.85455C77.2102 9.02406 76.9136 9.30236 76.6893 9.68945C76.4616 10.0822 76.3691 10.4815 76.4116 10.8874C76.4598 11.2966 76.609 11.6741 76.8591 12.0199C77.1125 12.3601 77.4279 12.6388 77.8053 12.8558Z" fill="#D99C87"/>
<path d="M95.8191 32.4937L96.302 33.3268L94.1391 34.5706L93.183 32.9212L93.9856 32.4597L91.1794 27.5993L90.3683 28.0657L89.4122 26.4164L91.5752 25.1726L91.902 25.7364C93.037 25.7121 94.0368 25.5972 94.9015 25.3917C95.7719 25.1829 96.6689 24.8129 97.5927 24.2817L100.715 29.6674L95.8191 32.4937ZM97.1806 26.5832C96.501 26.8618 95.8182 27.0637 95.1322 27.1889C94.4495 27.3196 93.7028 27.4049 92.8922 27.4447L94.8679 30.8528L98.4502 28.7928L97.1806 26.5832Z" fill="#D99C87"/>
<path d="M100.821 43.2002L99.599 38.6574L98.2043 39.0296L99.6762 44.3507L98.1873 44.7481L96.2303 37.4741L103.204 35.613L105.161 42.887L103.684 43.2913L102.247 37.9507L101.06 38.2676L102.282 42.8104L100.821 43.2002Z" fill="#D99C87"/>
<path d="M104.332 48.808H106V57.1257L104.332 48.808ZM106 57.1257H104.322V53.9968H98.7805V51.9757H104.322V48.808H106V57.1257Z" fill="#D99C87"/>
<path d="M100.32 68.0411C100.809 68.1781 101.016 68.2335 100.942 68.2071L100.32 68.0411ZM96.1817 68.7072L96.6892 66.8206L98.9415 67.4217L99.4819 65.4131L97.7472 62.888L98.3583 60.6166L100.171 63.2633C100.468 62.6853 100.859 62.273 101.342 62.0266C101.824 61.7864 102.364 61.7459 102.961 61.9052L102.998 61.9153C103.457 62.0377 103.826 62.267 104.106 62.6032C104.391 62.9474 104.571 63.3676 104.646 63.8638C104.719 64.3663 104.678 64.9085 104.521 65.4905L103.155 70.5682L96.1817 68.7072ZM102.987 65.5637C103.079 65.2196 103.136 64.9464 103.157 64.744C103.176 64.5479 103.133 64.3688 103.028 64.2068C102.922 64.051 102.718 63.9329 102.417 63.8524C102.134 63.777 101.911 63.7811 101.747 63.8648C101.581 63.9547 101.457 64.0893 101.375 64.2687C101.298 64.4559 101.213 64.7216 101.121 65.0658L100.383 67.8064L102.221 68.2969C102.509 67.2269 102.726 66.4433 102.874 65.946C102.908 65.8414 102.946 65.7139 102.987 65.5637Z" fill="#D99C87"/>
<path d="M96.4268 83.6923L90.1745 80.0971L91.1892 78.3467L94.5519 80.2804L92.1355 76.7142L93.1014 75.048L97.5512 75.2618L94.1209 73.2893L95.1306 71.5473L101.383 75.1426L100.198 77.1875L94.3131 76.8444L97.5927 81.6811L96.4268 83.6923Z" fill="#D99C87"/>
<path d="M34.7917 101.215L34.1444 102.598L26.0097 98.8198L26.3396 98.1152C26.6942 97.3579 27.1211 96.8521 27.6204 96.598C28.1284 96.3407 28.6247 96.2388 29.1092 96.2923C29.5964 96.3399 30.1919 96.4628 30.8957 96.661C31.0835 96.7197 31.405 96.8225 31.86 96.9695C32.3504 97.133 32.7363 97.2514 33.0177 97.3249C33.3018 97.3925 33.5527 97.4161 33.7704 97.3957C33.9967 97.3722 34.1511 97.2723 34.2335 97.0962C34.3792 96.785 34.2728 96.4604 33.9144 96.1224C33.5646 95.7813 33.0877 95.474 32.4837 95.2006C31.9032 94.9382 31.3684 94.8006 30.8792 94.7879C30.3987 94.7719 30.0718 94.9489 29.8986 95.3188L28.0507 94.4605C28.3393 93.8441 28.7798 93.4626 29.3723 93.316C29.9676 93.1636 30.5858 93.1613 31.2271 93.309C31.8771 93.4537 32.4909 93.6601 33.0686 93.9284C34.1178 94.4157 34.9891 94.9919 35.6824 95.657C36.3757 96.3221 36.5162 97.0949 36.1039 97.9756C35.8868 98.4394 35.5397 98.7285 35.0627 98.8429C34.5858 98.9573 34.0987 98.9706 33.6017 98.8827C33.1132 98.7916 32.5698 98.6572 31.9713 98.4793C31.6927 98.3999 31.5343 98.355 31.4962 98.3444C31.047 98.2001 30.5887 98.0909 30.1211 98.0167C29.6621 97.9393 29.2643 97.9154 28.9275 97.9448C28.5994 97.9711 28.3997 98.0606 28.3282 98.2133L34.7917 101.215Z" fill="#D99C87"/>
<path d="M46.4001 98.1061C49.3917 98.4494 50.7416 99.8367 50.4496 102.268C50.3361 103.214 49.9294 104.036 49.2297 104.736C48.5299 105.435 47.2921 105.679 45.5161 105.468C44.2633 105.318 43.3197 104.994 42.6853 104.494C42.051 103.995 41.654 103.455 41.4944 102.875C41.342 102.289 41.3079 101.727 41.3922 101.189C41.5034 100.263 41.917 99.4641 42.6331 98.7926C43.3491 98.1211 44.6048 97.8923 46.4001 98.1061ZM45.7031 103.993C46.336 104.068 46.8621 104.023 47.2816 103.858C47.7018 103.686 48.0163 103.44 48.2251 103.119C48.4347 102.791 48.557 102.428 48.592 102.027C48.6505 101.649 48.6155 101.286 48.487 100.938C48.3584 100.59 48.1092 100.293 47.7392 100.047C47.37 99.794 46.8689 99.6299 46.236 99.5545C45.6031 99.4791 45.0773 99.5209 44.6587 99.6798C44.2473 99.833 43.9379 100.064 43.7306 100.372C43.5298 100.68 43.413 101.025 43.3804 101.406C43.3195 101.804 43.349 102.186 43.4688 102.552C43.5957 102.913 43.8398 103.226 44.2011 103.491C44.5695 103.75 45.0702 103.917 45.7031 103.993Z" fill="#D99C87"/>
<path d="M65.4063 103.095L65.6459 104.602L56.7808 106L56.6587 105.232C56.5275 104.407 56.5975 103.75 56.8688 103.261C57.1454 102.765 57.4996 102.404 57.9313 102.178C58.362 101.947 58.9247 101.717 59.6194 101.489C59.8081 101.433 60.1323 101.339 60.5921 101.208C61.0905 101.07 61.4769 100.953 61.7514 100.858C62.0249 100.755 62.2461 100.635 62.4151 100.497C62.5895 100.352 62.6615 100.183 62.631 99.9909C62.577 99.6518 62.3066 99.4419 61.8197 99.3613C61.3381 99.2733 60.7702 99.2842 60.116 99.394C59.4875 99.4997 58.9668 99.6835 58.5541 99.9453C58.1468 100.2 57.9752 100.529 58.0393 100.932L56.0253 101.249C55.9185 100.578 56.0695 100.016 56.4785 99.5644C56.8864 99.1066 57.3976 98.7603 58.0122 98.5256C58.6323 98.2835 59.257 98.1128 59.8866 98.0135C61.0301 97.8331 62.0759 97.8255 63.0241 97.9908C63.9723 98.156 64.5227 98.7185 64.6753 99.6782C64.7557 100.184 64.6303 100.617 64.2991 100.977C63.9679 101.338 63.5716 101.62 63.1101 101.824C62.6541 102.02 62.1281 102.212 61.532 102.397C61.2565 102.487 61.0999 102.538 61.0624 102.55C60.609 102.681 60.1677 102.846 59.7384 103.044C59.3144 103.236 58.9712 103.438 58.7085 103.65C58.4513 103.854 58.3359 104.04 58.3624 104.206L65.4063 103.095Z" fill="#D99C87"/>
<path d="M79.0439 96.2982C79.3285 96.9523 79.3439 97.5598 79.0899 98.1209C78.8418 98.6793 78.4634 99.1588 77.9549 99.5594C77.4495 99.9514 76.9109 100.28 76.3391 100.546C75.8262 100.784 75.2584 100.958 74.6356 101.069C74.0128 101.179 73.4214 101.15 72.8616 100.981C72.3017 100.813 71.8884 100.443 71.6218 99.8739L73.3684 99.052C73.5333 99.4043 73.8352 99.5893 74.2741 99.607C74.7103 99.6189 75.1873 99.5189 75.7053 99.3069C76.2676 99.0672 76.698 98.7601 76.9963 98.3857C77.2946 98.0112 77.338 97.598 77.1263 97.1459C76.9198 96.7201 76.6081 96.4681 76.1912 96.3901C75.7775 96.3035 75.2228 96.4218 74.5272 96.7448C74.038 96.972 73.646 97.2613 73.3512 97.6127C73.0564 97.964 72.9818 98.2953 73.1275 98.6064L73.144 98.6416L71.4545 99.4477L69.6115 95.5112L76.7471 92.1972L77.2954 93.3685L71.8576 95.894L72.4843 97.2326C72.8546 96.5674 73.6469 95.9529 74.8612 95.3889C75.4625 95.1097 76.04 94.9558 76.5936 94.9274C77.1445 94.8931 77.6321 94.9919 78.0564 95.2237C78.4866 95.4528 78.8143 95.808 79.0397 96.2894L79.0439 96.2982Z" fill="#D99C87"/>
</svg>
