<svg width="106" height="106" viewBox="0 0 106 106" fill="none" xmlns="http://www.w3.org/2000/svg">
<path d="M14.4656 16.6072C13.7666 17.3465 13.093 18.101 12.4447 18.8696L87.1304 93.5553C87.899 92.907 88.6535 92.2334 89.3928 91.5344L14.4656 16.6072Z" fill="#D99C87"/>
<path d="M8.77539 23.7668C9.33876 22.9165 9.92926 22.0788 10.5469 21.255L84.745 95.4531C83.9212 96.0707 83.0835 96.6612 82.2332 97.2246L8.77539 23.7668Z" fill="#D99C87"/>
<path d="M7.13475 26.4095C6.60382 27.3239 6.10251 28.2508 5.63082 29.1888L76.8112 100.369C77.7492 99.8975 78.6761 99.3962 79.5905 98.8652L7.13475 26.4095Z" fill="#D99C87"/>
<path d="M3.06583 35.1903C3.43441 34.1547 3.83621 33.1281 4.27121 32.1124L73.8875 101.729C72.8719 102.164 71.8453 102.566 70.8097 102.934L3.06583 35.1903Z" fill="#D99C87"/>
<path d="M2.02761 38.4354C1.70438 39.5705 1.41974 40.7143 1.1737 41.8647L64.1353 104.826C65.2857 104.58 66.4295 104.296 67.5646 103.972L2.02761 38.4354Z" fill="#D99C87"/>
<path d="M0.120397 49.378C0.20861 48.0823 0.344215 46.7892 0.527218 45.5015L60.4985 105.473C59.2108 105.656 57.9177 105.791 56.622 105.88L0.120397 49.378Z" fill="#D99C87"/>
<path d="M0 53.5409C0.0153011 55.05 0.0946642 56.5586 0.238079 58.0622L47.9378 105.762C49.4414 105.905 50.95 105.985 52.4591 106L0 53.5409Z" fill="#D99C87"/>
<path d="M2.38958 68.7802C1.80432 66.8976 1.32645 64.9888 0.955963 63.0634L42.9366 105.044C41.0112 104.674 39.1024 104.196 37.2198 103.61L2.38958 68.7802Z" fill="#D99C87"/>
<path d="M5.14465 75.8186C7.6725 81.1202 11.1314 86.0886 15.5214 90.4786C19.9114 94.8686 24.8799 98.3275 30.1814 100.855L5.14465 75.8186Z" fill="#D99C87"/>
<path d="M91.5344 89.3928C92.2334 88.6535 92.907 87.899 93.5553 87.1304L18.8696 12.4447C18.101 13.093 17.3465 13.7666 16.6072 14.4656L91.5344 89.3928Z" fill="#D99C87"/>
<path d="M97.2246 82.2332C96.6612 83.0835 96.0708 83.9212 95.4531 84.745L21.255 10.5469C22.0788 9.92925 22.9165 9.33876 23.7668 8.77539L97.2246 82.2332Z" fill="#D99C87"/>
<path d="M26.4095 7.13475L98.8652 79.5905C99.3962 78.6761 99.8975 77.7492 100.369 76.8112L29.1888 5.63081C28.2508 6.1025 27.3239 6.60382 26.4095 7.13475Z" fill="#D99C87"/>
<path d="M102.934 70.8097C102.566 71.8453 102.164 72.8719 101.729 73.8875L32.1125 4.2712C33.1281 3.8362 34.1547 3.43441 35.1903 3.06582L102.934 70.8097Z" fill="#D99C87"/>
<path d="M38.4354 2.02761L103.972 67.5646C104.296 66.4295 104.58 65.2857 104.826 64.1353L41.8647 1.17369C40.7143 1.41974 39.5705 1.70438 38.4354 2.02761Z" fill="#D99C87"/>
<path d="M105.88 56.622C105.791 57.9177 105.656 59.2108 105.473 60.4985L45.5015 0.527216C46.7892 0.344215 48.0823 0.208609 49.378 0.120397L105.88 56.622Z" fill="#D99C87"/>
<path d="M53.5409 0L106 52.4591C105.985 50.95 105.905 49.4414 105.762 47.9378L58.0622 0.23808C56.5586 0.0946649 55.05 0.0153045 53.5409 0Z" fill="#D99C87"/>
<path d="M103.61 37.2198C104.196 39.1024 104.674 41.0112 105.044 42.9366L63.0634 0.955965C64.9888 1.32646 66.8976 1.80433 68.7802 2.38958L103.61 37.2198Z" fill="#D99C87"/>
<path d="M75.8186 5.14465L100.855 30.1814C98.3275 24.8799 94.8686 19.9114 90.4786 15.5214C86.0886 11.1314 81.1202 7.6725 75.8186 5.14465Z" fill="#D99C87"/>
</svg>
