<svg xmlns="http://www.w3.org/2000/svg" xmlns:xlink="http://www.w3.org/1999/xlink" width="400" zoomAndPan="magnify" viewBox="0 0 300 74.999997" height="100" preserveAspectRatio="xMidYMid meet" version="1.0"><defs><g/><clipPath id="b58252bb28"><path d="M 11.707031 7.5 L 300 7.5 L 300 75 L 11.707031 75 Z M 11.707031 7.5 " clip-rule="nonzero"/></clipPath><clipPath id="d9bbb5bc6a"><path d="M 0.0429688 0 L 288.027344 0 L 288.027344 65.882812 L 0.0429688 65.882812 Z M 0.0429688 0 " clip-rule="nonzero"/></clipPath></defs><g clip-path="url(#b58252bb28)"><path fill="#60a3b9" d="M 11.707031 7.5 L 299.902344 7.5 L 299.902344 75 L 11.707031 75 Z M 11.707031 7.5 " fill-opacity="1" fill-rule="nonzero"/></g><g fill="#000000" fill-opacity="1"><g transform="translate(45.957607, 47.249995)"><g><path d="M 18 -16.796875 L 18 0 L 12.40625 0 L 12.40625 -11.203125 L 6.796875 -11.203125 L 6.796875 0 L 1.203125 0 L 1.203125 -16.796875 Z M 18 -16.796875 "/></g></g></g><g fill="#000000" fill-opacity="1"><g transform="translate(66.837644, 47.249995)"><g><path d="M 10.046875 0.71875 C 8.796875 0.71875 7.613281 0.476562 6.5 0 C 5.394531 -0.476562 4.429688 -1.128906 3.609375 -1.953125 C 2.785156 -2.773438 2.128906 -3.738281 1.640625 -4.84375 C 1.160156 -5.945312 0.921875 -7.125 0.921875 -8.375 C 0.921875 -9.625 1.160156 -10.800781 1.640625 -11.90625 C 2.128906 -13.019531 2.785156 -13.988281 3.609375 -14.8125 C 4.429688 -15.644531 5.394531 -16.300781 6.5 -16.78125 C 7.613281 -17.257812 8.796875 -17.5 10.046875 -17.5 C 11.296875 -17.5 12.472656 -17.257812 13.578125 -16.78125 C 14.679688 -16.300781 15.644531 -15.644531 16.46875 -14.8125 C 17.289062 -13.988281 17.941406 -13.019531 18.421875 -11.90625 C 18.898438 -10.800781 19.140625 -9.625 19.140625 -8.375 C 19.140625 -7.125 18.898438 -5.945312 18.421875 -4.84375 C 17.941406 -3.738281 17.289062 -2.773438 16.46875 -1.953125 C 15.644531 -1.128906 14.679688 -0.476562 13.578125 0 C 12.472656 0.476562 11.296875 0.71875 10.046875 0.71875 Z M 10.046875 -4.828125 C 10.523438 -4.828125 10.976562 -4.914062 11.40625 -5.09375 C 11.832031 -5.28125 12.203125 -5.535156 12.515625 -5.859375 C 12.835938 -6.179688 13.085938 -6.554688 13.265625 -6.984375 C 13.453125 -7.410156 13.546875 -7.875 13.546875 -8.375 C 13.546875 -8.875 13.453125 -9.335938 13.265625 -9.765625 C 13.085938 -10.203125 12.835938 -10.582031 12.515625 -10.90625 C 12.203125 -11.238281 11.832031 -11.492188 11.40625 -11.671875 C 10.976562 -11.859375 10.523438 -11.953125 10.046875 -11.953125 C 9.566406 -11.953125 9.109375 -11.859375 8.671875 -11.671875 C 8.242188 -11.492188 7.867188 -11.238281 7.546875 -10.90625 C 7.234375 -10.582031 6.984375 -10.203125 6.796875 -9.765625 C 6.609375 -9.335938 6.515625 -8.875 6.515625 -8.375 C 6.515625 -7.875 6.609375 -7.410156 6.796875 -6.984375 C 6.984375 -6.554688 7.234375 -6.179688 7.546875 -5.859375 C 7.867188 -5.535156 8.242188 -5.28125 8.671875 -5.09375 C 9.109375 -4.914062 9.566406 -4.828125 10.046875 -4.828125 Z M 10.046875 -4.828125 "/></g></g></g><g fill="#000000" fill-opacity="1"><g transform="translate(88.653682, 47.249995)"><g><path d="M 6.8125 0 L 6.8125 1.390625 L 1.203125 1.390625 L 1.25 -5.59375 L 2.375 -5.59375 L 2.375 -9.140625 C 2.375 -10.296875 2.59375 -11.382812 3.03125 -12.40625 C 3.476562 -13.425781 4.078125 -14.3125 4.828125 -15.0625 C 5.578125 -15.820312 6.460938 -16.421875 7.484375 -16.859375 C 8.515625 -17.296875 9.601562 -17.515625 10.75 -17.515625 C 11.90625 -17.515625 12.992188 -17.296875 14.015625 -16.859375 C 15.035156 -16.421875 15.925781 -15.820312 16.6875 -15.0625 C 17.445312 -14.3125 18.046875 -13.425781 18.484375 -12.40625 C 18.929688 -11.382812 19.15625 -10.296875 19.15625 -9.140625 L 19.15625 -5.59375 L 20.25 -5.59375 L 20.296875 1.390625 L 14.6875 1.390625 L 14.6875 0 Z M 7.96875 -5.59375 L 13.5625 -5.59375 L 13.5625 -9.140625 C 13.5625 -9.523438 13.492188 -9.894531 13.359375 -10.25 C 13.222656 -10.613281 13.035156 -10.929688 12.796875 -11.203125 C 12.554688 -11.472656 12.265625 -11.6875 11.921875 -11.84375 C 11.578125 -12.007812 11.1875 -12.09375 10.75 -12.09375 C 10.332031 -12.09375 9.953125 -12.007812 9.609375 -11.84375 C 9.265625 -11.6875 8.972656 -11.472656 8.734375 -11.203125 C 8.492188 -10.929688 8.304688 -10.613281 8.171875 -10.25 C 8.035156 -9.894531 7.96875 -9.523438 7.96875 -9.140625 Z M 7.96875 -5.59375 "/></g></g></g><g fill="#000000" fill-opacity="1"><g transform="translate(111.837726, 47.249995)"><g><path d="M 1.203125 -16.796875 L 15.1875 -16.796875 L 15.1875 -11.203125 L 6.796875 -11.203125 L 6.796875 0 L 1.203125 0 Z M 1.203125 -16.796875 "/></g></g></g><g fill="#000000" fill-opacity="1"><g transform="translate(129.909759, 47.249995)"><g><path d="M 1.171875 0 L 1.171875 -16.796875 L 10.953125 -16.796875 C 11.921875 -16.796875 12.832031 -16.613281 13.6875 -16.25 C 14.539062 -15.882812 15.28125 -15.382812 15.90625 -14.75 C 16.539062 -14.113281 17.039062 -13.367188 17.40625 -12.515625 C 17.78125 -11.660156 17.96875 -10.753906 17.96875 -9.796875 C 17.96875 -8.835938 17.78125 -7.929688 17.40625 -7.078125 C 17.039062 -6.234375 16.539062 -5.492188 15.90625 -4.859375 C 15.28125 -4.222656 14.539062 -3.722656 13.6875 -3.359375 C 12.832031 -2.992188 11.921875 -2.8125 10.953125 -2.8125 L 6.765625 -2.8125 L 6.765625 0 Z M 6.765625 -8.40625 L 10.953125 -8.40625 C 11.359375 -8.40625 11.695312 -8.539062 11.96875 -8.8125 C 12.238281 -9.082031 12.375 -9.410156 12.375 -9.796875 C 12.375 -10.191406 12.238281 -10.523438 11.96875 -10.796875 C 11.695312 -11.066406 11.359375 -11.203125 10.953125 -11.203125 L 6.765625 -11.203125 Z M 6.765625 -8.40625 "/></g></g></g><g fill="#000000" fill-opacity="1"><g transform="translate(150.789794, 47.249995)"><g><path d="M 7.046875 -16.796875 L 9.859375 -8.40625 L 11.46875 -8.40625 L 14.25 -16.796875 L 20.125 -16.796875 L 14.53125 0 L 8.65625 0 L 9.59375 -2.8125 L 5.828125 -2.8125 L 1.171875 -16.796875 Z M 7.046875 -16.796875 "/></g></g></g><g fill="#000000" fill-opacity="1"><g transform="translate(173.829839, 47.249995)"><g><path d="M 18 -16.796875 L 18 0 L 12.40625 0 L 12.40625 -11.203125 L 6.796875 -11.203125 L 6.796875 0 L 1.203125 0 L 1.203125 -16.796875 Z M 18 -16.796875 "/></g></g></g><g fill="#000000" fill-opacity="1"><g transform="translate(194.70988, 47.249995)"><g><path d="M 18 -16.796875 L 18 0 L 12.40625 0 L 12.40625 -11.203125 L 6.796875 -11.203125 L 6.796875 0 L 1.203125 0 L 1.203125 -16.796875 Z M 18 -16.796875 "/></g></g></g><g fill="#000000" fill-opacity="1"><g transform="translate(215.589921, 47.249995)"><g><path d="M 14.53125 -16.796875 L 20.125 0 L 14.25 0 L 13.796875 -1.390625 L 7.5 -1.390625 L 7.046875 0 L 1.171875 0 L 6.765625 -16.796875 Z M 8.921875 -5.59375 L 12.40625 -5.59375 L 10.65625 -10.828125 Z M 8.921875 -5.59375 "/></g></g></g><g fill="#000000" fill-opacity="1"><g transform="translate(238.629954, 47.249995)"><g/></g></g><g fill="#000000" fill-opacity="1"><g transform="translate(246.549975, 47.249995)"><g><path d="M 1.21875 -2.71875 C 1.21875 -5.050781 1.835938 -6.738281 3.078125 -7.78125 C 4.046875 -8.59375 5.207031 -9.175781 6.5625 -9.53125 C 7.914062 -9.894531 9.515625 -10.109375 11.359375 -10.171875 C 11.640625 -10.191406 11.878906 -10.300781 12.078125 -10.5 C 12.285156 -10.695312 12.390625 -10.929688 12.390625 -11.203125 C 12.390625 -11.492188 12.285156 -11.742188 12.078125 -11.953125 C 11.867188 -12.160156 11.628906 -12.265625 11.359375 -12.265625 L 7.84375 -12.265625 C 7.59375 -12.265625 7.359375 -12.164062 7.140625 -11.96875 C 6.921875 -11.78125 6.8125 -11.523438 6.8125 -11.203125 L 1.21875 -11.203125 L 1.21875 -11.5625 C 1.21875 -12.332031 1.363281 -13.054688 1.65625 -13.734375 C 1.957031 -14.421875 2.359375 -15.015625 2.859375 -15.515625 C 3.367188 -16.015625 3.960938 -16.410156 4.640625 -16.703125 C 5.316406 -17.003906 6.039062 -17.15625 6.8125 -17.15625 L 12.390625 -17.15625 C 13.148438 -17.15625 13.867188 -17.003906 14.546875 -16.703125 C 15.234375 -16.410156 15.828125 -16.015625 16.328125 -15.515625 C 16.835938 -15.015625 17.238281 -14.421875 17.53125 -13.734375 C 17.820312 -13.054688 17.96875 -12.332031 17.96875 -11.5625 C 17.96875 -10.632812 17.828125 -9.84375 17.546875 -9.1875 C 17.273438 -8.53125 16.894531 -7.988281 16.40625 -7.5625 C 15.914062 -7.144531 15.328125 -6.835938 14.640625 -6.640625 C 13.953125 -6.441406 13.203125 -6.34375 12.390625 -6.34375 C 11.773438 -6.34375 11.210938 -6.34375 10.703125 -6.34375 C 10.203125 -6.34375 9.742188 -6.316406 9.328125 -6.265625 C 8.921875 -6.210938 8.539062 -6.132812 8.1875 -6.03125 C 7.832031 -5.925781 7.492188 -5.78125 7.171875 -5.59375 L 17.28125 -5.59375 L 17.28125 0 L 1.21875 0 Z M 1.21875 -2.71875 "/></g></g></g><g clip-path="url(#d9bbb5bc6a)"><path stroke-linecap="butt" transform="matrix(0.75, 0, 0, 0.75, 0.0443723, -0.000001)" fill="none" stroke-linejoin="miter" d="M -0.00187142 0.00000133333 L 384.018993 0.00000133333 L 384.018993 87.843759 L -0.00187142 87.843759 Z M -0.00187142 0.00000133333 " stroke="#1d1842" stroke-width="8" stroke-opacity="1" stroke-miterlimit="4"/></g></svg>