<svg xmlns="http://www.w3.org/2000/svg" xmlns:xlink="http://www.w3.org/1999/xlink" width="400" zoomAndPan="magnify" viewBox="0 0 300 74.999997" height="100" preserveAspectRatio="xMidYMid meet" version="1.0"><defs><g/><clipPath id="f95986843e"><path d="M 0 0 L 286.324219 0 L 286.324219 67.5 L 0 67.5 Z M 0 0 " clip-rule="nonzero"/></clipPath><clipPath id="6f7e471c39"><path d="M 10.203125 8.984375 L 299.691406 8.984375 L 299.691406 74.984375 L 10.203125 74.984375 Z M 10.203125 8.984375 " clip-rule="nonzero"/></clipPath></defs><g clip-path="url(#f95986843e)"><path fill="#60a3b9" d="M 0 0 L 286.347656 0 L 286.347656 67.5 L 0 67.5 Z M 0 0 " fill-opacity="1" fill-rule="nonzero"/></g><g fill="#000000" fill-opacity="1"><g transform="translate(50.668595, 38.999996)"><g><path d="M 15.75 -14.703125 L 15.75 0 L 10.859375 0 L 10.859375 -9.8125 L 5.9375 -9.8125 L 5.9375 0 L 1.046875 0 L 1.046875 -14.703125 Z M 15.75 -14.703125 "/></g></g></g><g fill="#000000" fill-opacity="1"><g transform="translate(68.938669, 38.999996)"><g><path d="M 8.796875 0.625 C 7.710938 0.625 6.679688 0.414062 5.703125 0 C 4.734375 -0.414062 3.882812 -0.984375 3.15625 -1.703125 C 2.4375 -2.429688 1.867188 -3.273438 1.453125 -4.234375 C 1.035156 -5.203125 0.828125 -6.234375 0.828125 -7.328125 C 0.828125 -8.421875 1.035156 -9.453125 1.453125 -10.421875 C 1.867188 -11.398438 2.4375 -12.25 3.15625 -12.96875 C 3.882812 -13.6875 4.734375 -14.253906 5.703125 -14.671875 C 6.679688 -15.097656 7.710938 -15.3125 8.796875 -15.3125 C 9.890625 -15.3125 10.921875 -15.097656 11.890625 -14.671875 C 12.859375 -14.253906 13.703125 -13.6875 14.421875 -12.96875 C 15.140625 -12.25 15.707031 -11.398438 16.125 -10.421875 C 16.550781 -9.453125 16.765625 -8.421875 16.765625 -7.328125 C 16.765625 -6.234375 16.550781 -5.203125 16.125 -4.234375 C 15.707031 -3.273438 15.140625 -2.429688 14.421875 -1.703125 C 13.703125 -0.984375 12.859375 -0.414062 11.890625 0 C 10.921875 0.414062 9.890625 0.625 8.796875 0.625 Z M 8.796875 -4.21875 C 9.222656 -4.21875 9.617188 -4.296875 9.984375 -4.453125 C 10.359375 -4.617188 10.6875 -4.84375 10.96875 -5.125 C 11.25 -5.40625 11.46875 -5.734375 11.625 -6.109375 C 11.789062 -6.484375 11.875 -6.890625 11.875 -7.328125 C 11.875 -7.765625 11.789062 -8.171875 11.625 -8.546875 C 11.46875 -8.921875 11.25 -9.25 10.96875 -9.53125 C 10.6875 -9.820312 10.359375 -10.046875 9.984375 -10.203125 C 9.617188 -10.367188 9.222656 -10.453125 8.796875 -10.453125 C 8.378906 -10.453125 7.984375 -10.367188 7.609375 -10.203125 C 7.234375 -10.046875 6.90625 -9.820312 6.625 -9.53125 C 6.34375 -9.25 6.117188 -8.921875 5.953125 -8.546875 C 5.796875 -8.171875 5.71875 -7.765625 5.71875 -7.328125 C 5.71875 -6.890625 5.796875 -6.484375 5.953125 -6.109375 C 6.117188 -5.734375 6.34375 -5.40625 6.625 -5.125 C 6.90625 -4.84375 7.234375 -4.617188 7.609375 -4.453125 C 7.984375 -4.296875 8.378906 -4.21875 8.796875 -4.21875 Z M 8.796875 -4.21875 "/></g></g></g><g fill="#000000" fill-opacity="1"><g transform="translate(88.027738, 38.999996)"><g><path d="M 5.96875 0 L 5.96875 1.21875 L 1.046875 1.21875 L 1.09375 -4.890625 L 2.078125 -4.890625 L 2.078125 -8 C 2.078125 -9.007812 2.269531 -9.960938 2.65625 -10.859375 C 3.039062 -11.753906 3.5625 -12.53125 4.21875 -13.1875 C 4.875 -13.84375 5.648438 -14.363281 6.546875 -14.75 C 7.441406 -15.132812 8.394531 -15.328125 9.40625 -15.328125 C 10.414062 -15.328125 11.367188 -15.132812 12.265625 -14.75 C 13.160156 -14.363281 13.941406 -13.84375 14.609375 -13.1875 C 15.273438 -12.53125 15.800781 -11.753906 16.1875 -10.859375 C 16.570312 -9.960938 16.765625 -9.007812 16.765625 -8 L 16.765625 -4.890625 L 17.71875 -4.890625 L 17.765625 1.21875 L 12.859375 1.21875 L 12.859375 0 Z M 6.96875 -4.890625 L 11.859375 -4.890625 L 11.859375 -8 C 11.859375 -8.332031 11.800781 -8.65625 11.6875 -8.96875 C 11.570312 -9.289062 11.40625 -9.566406 11.1875 -9.796875 C 10.976562 -10.035156 10.722656 -10.222656 10.421875 -10.359375 C 10.117188 -10.503906 9.78125 -10.578125 9.40625 -10.578125 C 9.039062 -10.578125 8.707031 -10.503906 8.40625 -10.359375 C 8.101562 -10.222656 7.847656 -10.035156 7.640625 -9.796875 C 7.429688 -9.566406 7.265625 -9.289062 7.140625 -8.96875 C 7.023438 -8.65625 6.96875 -8.332031 6.96875 -8 Z M 6.96875 -4.890625 "/></g></g></g><g fill="#000000" fill-opacity="1"><g transform="translate(108.313814, 38.999996)"><g><path d="M 1.046875 -14.703125 L 13.296875 -14.703125 L 13.296875 -9.8125 L 5.9375 -9.8125 L 5.9375 0 L 1.046875 0 Z M 1.046875 -14.703125 "/></g></g></g><g fill="#000000" fill-opacity="1"><g transform="translate(124.126876, 38.999996)"><g><path d="M 1.03125 0 L 1.03125 -14.703125 L 9.609375 -14.703125 C 10.441406 -14.703125 11.234375 -14.539062 11.984375 -14.21875 C 12.734375 -13.894531 13.382812 -13.457031 13.9375 -12.90625 C 14.488281 -12.351562 14.925781 -11.703125 15.25 -10.953125 C 15.570312 -10.203125 15.734375 -9.40625 15.734375 -8.5625 C 15.734375 -7.726562 15.570312 -6.9375 15.25 -6.1875 C 14.925781 -5.445312 14.488281 -4.800781 13.9375 -4.25 C 13.382812 -3.695312 12.734375 -3.257812 11.984375 -2.9375 C 11.234375 -2.613281 10.441406 -2.453125 9.609375 -2.453125 L 5.921875 -2.453125 L 5.921875 0 Z M 5.921875 -7.34375 L 9.609375 -7.34375 C 9.953125 -7.34375 10.242188 -7.460938 10.484375 -7.703125 C 10.722656 -7.941406 10.84375 -8.226562 10.84375 -8.5625 C 10.84375 -8.914062 10.722656 -9.210938 10.484375 -9.453125 C 10.242188 -9.691406 9.953125 -9.8125 9.609375 -9.8125 L 5.921875 -9.8125 Z M 5.921875 -7.34375 "/></g></g></g><g fill="#000000" fill-opacity="1"><g transform="translate(142.396949, 38.999996)"><g><path d="M 6.171875 -14.703125 L 8.640625 -7.34375 L 10.046875 -7.34375 L 12.484375 -14.703125 L 17.625 -14.703125 L 12.734375 0 L 7.59375 0 L 8.40625 -2.453125 L 5.109375 -2.453125 L 1.03125 -14.703125 Z M 6.171875 -14.703125 "/></g></g></g><g fill="#000000" fill-opacity="1"><g transform="translate(162.557025, 38.999996)"><g><path d="M 15.75 -14.703125 L 15.75 0 L 10.859375 0 L 10.859375 -9.8125 L 5.9375 -9.8125 L 5.9375 0 L 1.046875 0 L 1.046875 -14.703125 Z M 15.75 -14.703125 "/></g></g></g><g fill="#000000" fill-opacity="1"><g transform="translate(180.827093, 38.999996)"><g><path d="M 15.75 -14.703125 L 15.75 0 L 10.859375 0 L 10.859375 -9.8125 L 5.9375 -9.8125 L 5.9375 0 L 1.046875 0 L 1.046875 -14.703125 Z M 15.75 -14.703125 "/></g></g></g><g fill="#000000" fill-opacity="1"><g transform="translate(199.097172, 38.999996)"><g><path d="M 12.734375 -14.703125 L 17.625 0 L 12.484375 0 L 12.078125 -1.21875 L 6.578125 -1.21875 L 6.171875 0 L 1.03125 0 L 5.921875 -14.703125 Z M 7.8125 -4.890625 L 10.859375 -4.890625 L 9.328125 -9.46875 Z M 7.8125 -4.890625 "/></g></g></g><g fill="#000000" fill-opacity="1"><g transform="translate(226.187269, 38.999996)"><g><path d="M 8.40625 -14.703125 L 8.40625 0 L 3.5 0 L 3.5 -9.8125 L 1.046875 -9.8125 L 1.046875 -14.703125 Z M 8.40625 -14.703125 "/></g></g></g><g clip-path="url(#6f7e471c39)"><path stroke-linecap="butt" transform="matrix(0.75, 0, 0, 0.75, 10.20179, 8.982939)" fill="none" stroke-linejoin="miter" d="M 0.00178058 0.00191426 L 386.38202 0.00191426 L 386.38202 88.017546 L 0.00178058 88.017546 Z M 0.00178058 0.00191426 " stroke="#1d1842" stroke-width="8" stroke-opacity="1" stroke-miterlimit="4"/></g></svg>