<svg xmlns="http://www.w3.org/2000/svg" xmlns:xlink="http://www.w3.org/1999/xlink" width="1920" zoomAndPan="magnify" viewBox="0 0 1440 179.999997" height="240" preserveAspectRatio="xMidYMid meet" version="1.0"><defs><g/><clipPath id="cbf1b4e780"><path d="M 0 0 L 1440 0 L 1440 179.890625 L 0 179.890625 Z M 0 0 " clip-rule="nonzero"/></clipPath></defs><g clip-path="url(#cbf1b4e780)"><path fill="#fc8620" d="M -15.320312 0 L 1455.414062 0 L 1455.414062 179.890625 L -15.320312 179.890625 Z M -15.320312 0 " fill-opacity="1" fill-rule="nonzero"/></g><g fill="#1d1842" fill-opacity="1"><g transform="translate(442.686805, 110.999993)"><g><path d="M 4.34375 -60.75 L 54.9375 -60.75 L 54.9375 -40.53125 L 24.5625 -40.53125 L 24.5625 0 L 4.34375 0 Z M 4.34375 -60.75 "/></g></g></g><g fill="#1d1842" fill-opacity="1"><g transform="translate(508.022208, 110.999993)"><g><path d="M 4.25 0 L 4.25 -60.75 L 39.65625 -60.75 C 43.125 -60.75 46.40625 -60.082031 49.5 -58.75 C 52.59375 -57.414062 55.28125 -55.609375 57.5625 -53.328125 C 59.851562 -51.046875 61.664062 -48.351562 63 -45.25 C 64.332031 -42.15625 65 -38.875 65 -35.40625 C 65 -31.9375 64.332031 -28.664062 63 -25.59375 C 61.664062 -22.53125 59.851562 -19.851562 57.5625 -17.5625 C 55.28125 -15.28125 52.59375 -13.472656 49.5 -12.140625 C 46.40625 -10.816406 43.125 -10.15625 39.65625 -10.15625 L 24.46875 -10.15625 L 24.46875 0 Z M 24.46875 -30.375 L 39.65625 -30.375 C 41.101562 -30.375 42.316406 -30.863281 43.296875 -31.84375 C 44.273438 -32.832031 44.765625 -34.019531 44.765625 -35.40625 C 44.765625 -36.851562 44.273438 -38.066406 43.296875 -39.046875 C 42.316406 -40.035156 41.101562 -40.53125 39.65625 -40.53125 L 24.46875 -40.53125 Z M 24.46875 -30.375 "/></g></g></g><g fill="#1d1842" fill-opacity="1"><g transform="translate(583.509207, 110.999993)"><g><path d="M 25.5 -60.75 L 35.65625 -30.375 L 41.46875 -30.375 L 51.546875 -60.75 L 72.796875 -60.75 L 52.578125 0 L 31.328125 0 L 34.703125 -10.15625 L 21.078125 -10.15625 L 4.25 -60.75 Z M 25.5 -60.75 "/></g></g></g><g fill="#1d1842" fill-opacity="1"><g transform="translate(666.805115, 110.999993)"><g><path d="M 65.09375 -60.75 L 65.09375 0 L 44.859375 0 L 44.859375 -40.53125 L 24.5625 -40.53125 L 24.5625 0 L 4.34375 0 L 4.34375 -60.75 Z M 65.09375 -60.75 "/></g></g></g><g fill="#1d1842" fill-opacity="1"><g transform="translate(742.292103, 110.999993)"><g><path d="M 65.09375 -60.75 L 65.09375 0 L 44.859375 0 L 44.859375 -40.53125 L 24.5625 -40.53125 L 24.5625 0 L 4.34375 0 L 4.34375 -60.75 Z M 65.09375 -60.75 "/></g></g></g><g fill="#1d1842" fill-opacity="1"><g transform="translate(817.779113, 110.999993)"><g><path d="M 52.578125 -60.75 L 72.796875 0 L 51.546875 0 L 49.890625 -5.03125 L 27.15625 -5.03125 L 25.5 0 L 4.25 0 L 24.46875 -60.75 Z M 32.28125 -20.21875 L 44.859375 -20.21875 L 38.53125 -39.140625 Z M 32.28125 -20.21875 "/></g></g></g><g fill="#1d1842" fill-opacity="1"><g transform="translate(929.70855, 110.999993)"><g><path d="M 61.609375 -60.75 L 61.609375 -40.53125 L 24.21875 -40.53125 C 26.300781 -39.082031 28.988281 -38.269531 32.28125 -38.09375 C 35.582031 -37.925781 39.457031 -37.84375 43.90625 -37.84375 C 46.863281 -37.84375 49.582031 -37.476562 52.0625 -36.75 C 54.550781 -36.03125 56.675781 -34.898438 58.4375 -33.359375 C 60.207031 -31.828125 61.597656 -29.875 62.609375 -27.5 C 63.617188 -25.132812 64.125 -22.273438 64.125 -18.921875 C 64.125 -16.140625 63.585938 -13.519531 62.515625 -11.0625 C 61.453125 -8.601562 60.007812 -6.460938 58.1875 -4.640625 C 56.363281 -2.816406 54.222656 -1.367188 51.765625 -0.296875 C 49.304688 0.765625 46.6875 1.296875 43.90625 1.296875 L 23.78125 1.296875 C 21 1.296875 18.378906 0.765625 15.921875 -0.296875 C 13.460938 -1.367188 11.320312 -2.816406 9.5 -4.640625 C 7.675781 -6.460938 6.226562 -8.601562 5.15625 -11.0625 C 4.09375 -13.519531 3.5625 -16.140625 3.5625 -18.921875 L 3.5625 -20.21875 L 23.78125 -20.21875 C 23.78125 -19.0625 24.171875 -18.132812 24.953125 -17.4375 C 25.734375 -16.75 26.585938 -16.40625 27.515625 -16.40625 L 40.1875 -16.40625 C 41.164062 -16.40625 42.03125 -16.78125 42.78125 -17.53125 C 43.53125 -18.28125 43.90625 -19.175781 43.90625 -20.21875 C 43.90625 -21.207031 43.539062 -22.0625 42.8125 -22.78125 C 42.09375 -23.5 41.21875 -23.890625 40.1875 -23.953125 C 36.25 -24.128906 32.554688 -24.347656 29.109375 -24.609375 C 25.671875 -24.867188 22.429688 -25.515625 19.390625 -26.546875 C 16.359375 -27.585938 13.523438 -29.175781 10.890625 -31.3125 C 8.253906 -33.457031 5.8125 -36.53125 3.5625 -40.53125 L 3.5625 -60.75 Z M 61.609375 -60.75 "/></g></g></g><path stroke-linecap="butt" transform="matrix(0.75, 0.000000000000000011, -0.000000000000000011, 0.75, 0.0000136, 149.521045)" fill="none" stroke-linejoin="miter" d="M -0.0000181333 1.997982 L 1920.000098 1.997982 " stroke="#1d1842" stroke-width="4" stroke-opacity="1" stroke-miterlimit="4"/></svg>