<svg xmlns="http://www.w3.org/2000/svg" xmlns:xlink="http://www.w3.org/1999/xlink" width="1920" zoomAndPan="magnify" viewBox="0 0 1440 179.999997" height="240" preserveAspectRatio="xMidYMid meet" version="1.0"><defs><g/><clipPath id="2cbe559a49"><path d="M 0 0 L 1440 0 L 1440 179.890625 L 0 179.890625 Z M 0 0 " clip-rule="nonzero"/></clipPath></defs><rect x="-144" width="1728" fill="#ffffff" y="-18" height="215.999996" fill-opacity="1"/><rect x="-144" width="1728" fill="#fc8620" y="-18" height="215.999996" fill-opacity="1"/><g clip-path="url(#2cbe559a49)"><path fill="#fc8620" d="M -15.320312 0 L 1455.414062 0 L 1455.414062 179.890625 L -15.320312 179.890625 Z M -15.320312 0 " fill-opacity="1" fill-rule="nonzero"/></g><g fill="#1d1842" fill-opacity="1"><g transform="translate(456.960241, 110.999993)"><g><path d="M 4.34375 -60.75 L 54.9375 -60.75 L 54.9375 -40.53125 L 24.5625 -40.53125 L 24.5625 0 L 4.34375 0 Z M 4.34375 -60.75 "/></g></g></g><g fill="#1d1842" fill-opacity="1"><g transform="translate(522.295644, 110.999993)"><g><path d="M 4.25 0 L 4.25 -60.75 L 39.65625 -60.75 C 43.125 -60.75 46.40625 -60.082031 49.5 -58.75 C 52.59375 -57.414062 55.28125 -55.609375 57.5625 -53.328125 C 59.851562 -51.046875 61.664062 -48.351562 63 -45.25 C 64.332031 -42.15625 65 -38.875 65 -35.40625 C 65 -31.9375 64.332031 -28.664062 63 -25.59375 C 61.664062 -22.53125 59.851562 -19.851562 57.5625 -17.5625 C 55.28125 -15.28125 52.59375 -13.472656 49.5 -12.140625 C 46.40625 -10.816406 43.125 -10.15625 39.65625 -10.15625 L 24.46875 -10.15625 L 24.46875 0 Z M 24.46875 -30.375 L 39.65625 -30.375 C 41.101562 -30.375 42.316406 -30.863281 43.296875 -31.84375 C 44.273438 -32.832031 44.765625 -34.019531 44.765625 -35.40625 C 44.765625 -36.851562 44.273438 -38.066406 43.296875 -39.046875 C 42.316406 -40.035156 41.101562 -40.53125 39.65625 -40.53125 L 24.46875 -40.53125 Z M 24.46875 -30.375 "/></g></g></g><g fill="#1d1842" fill-opacity="1"><g transform="translate(597.782643, 110.999993)"><g><path d="M 25.5 -60.75 L 35.65625 -30.375 L 41.46875 -30.375 L 51.546875 -60.75 L 72.796875 -60.75 L 52.578125 0 L 31.328125 0 L 34.703125 -10.15625 L 21.078125 -10.15625 L 4.25 -60.75 Z M 25.5 -60.75 "/></g></g></g><g fill="#1d1842" fill-opacity="1"><g transform="translate(681.078552, 110.999993)"><g><path d="M 65.09375 -60.75 L 65.09375 0 L 44.859375 0 L 44.859375 -40.53125 L 24.5625 -40.53125 L 24.5625 0 L 4.34375 0 L 4.34375 -60.75 Z M 65.09375 -60.75 "/></g></g></g><g fill="#1d1842" fill-opacity="1"><g transform="translate(756.565539, 110.999993)"><g><path d="M 65.09375 -60.75 L 65.09375 0 L 44.859375 0 L 44.859375 -40.53125 L 24.5625 -40.53125 L 24.5625 0 L 4.34375 0 L 4.34375 -60.75 Z M 65.09375 -60.75 "/></g></g></g><g fill="#1d1842" fill-opacity="1"><g transform="translate(832.05255, 110.999993)"><g><path d="M 52.578125 -60.75 L 72.796875 0 L 51.546875 0 L 49.890625 -5.03125 L 27.15625 -5.03125 L 25.5 0 L 4.25 0 L 24.46875 -60.75 Z M 32.28125 -20.21875 L 44.859375 -20.21875 L 38.53125 -39.140625 Z M 32.28125 -20.21875 "/></g></g></g><g fill="#1d1842" fill-opacity="1"><g transform="translate(943.981986, 110.999993)"><g><path d="M 34.71875 -60.75 L 34.71875 0 L 14.5 0 L 14.5 -40.53125 L 4.34375 -40.53125 L 4.34375 -60.75 Z M 34.71875 -60.75 "/></g></g></g><path stroke-linecap="butt" transform="matrix(0.75, 0.000000000000000011, -0.000000000000000011, 0.75, 0.0000136, 149.52103)" fill="none" stroke-linejoin="miter" d="M -0.0000181333 1.998002 L 1920.000098 1.998002 " stroke="#1d1842" stroke-width="4" stroke-opacity="1" stroke-miterlimit="4"/></svg>