<svg xmlns="http://www.w3.org/2000/svg" xmlns:xlink="http://www.w3.org/1999/xlink" width="1920" zoomAndPan="magnify" viewBox="0 0 1440 179.999997" height="240" preserveAspectRatio="xMidYMid meet" version="1.0"><defs><g/><clipPath id="d26432cd30"><path d="M 0 0 L 1440 0 L 1440 179.890625 L 0 179.890625 Z M 0 0 " clip-rule="nonzero"/></clipPath></defs><g clip-path="url(#d26432cd30)"><path fill="#fc8620" d="M -15.320312 0 L 1455.414062 0 L 1455.414062 179.890625 L -15.320312 179.890625 Z M -15.320312 0 " fill-opacity="1" fill-rule="nonzero"/></g><g fill="#1d1842" fill-opacity="1"><g transform="translate(442.557902, 110.999993)"><g><path d="M 4.34375 -60.75 L 54.9375 -60.75 L 54.9375 -40.53125 L 24.5625 -40.53125 L 24.5625 0 L 4.34375 0 Z M 4.34375 -60.75 "/></g></g></g><g fill="#1d1842" fill-opacity="1"><g transform="translate(507.893305, 110.999993)"><g><path d="M 4.25 0 L 4.25 -60.75 L 39.65625 -60.75 C 43.125 -60.75 46.40625 -60.082031 49.5 -58.75 C 52.59375 -57.414062 55.28125 -55.609375 57.5625 -53.328125 C 59.851562 -51.046875 61.664062 -48.351562 63 -45.25 C 64.332031 -42.15625 65 -38.875 65 -35.40625 C 65 -31.9375 64.332031 -28.664062 63 -25.59375 C 61.664062 -22.53125 59.851562 -19.851562 57.5625 -17.5625 C 55.28125 -15.28125 52.59375 -13.472656 49.5 -12.140625 C 46.40625 -10.816406 43.125 -10.15625 39.65625 -10.15625 L 24.46875 -10.15625 L 24.46875 0 Z M 24.46875 -30.375 L 39.65625 -30.375 C 41.101562 -30.375 42.316406 -30.863281 43.296875 -31.84375 C 44.273438 -32.832031 44.765625 -34.019531 44.765625 -35.40625 C 44.765625 -36.851562 44.273438 -38.066406 43.296875 -39.046875 C 42.316406 -40.035156 41.101562 -40.53125 39.65625 -40.53125 L 24.46875 -40.53125 Z M 24.46875 -30.375 "/></g></g></g><g fill="#1d1842" fill-opacity="1"><g transform="translate(583.380304, 110.999993)"><g><path d="M 25.5 -60.75 L 35.65625 -30.375 L 41.46875 -30.375 L 51.546875 -60.75 L 72.796875 -60.75 L 52.578125 0 L 31.328125 0 L 34.703125 -10.15625 L 21.078125 -10.15625 L 4.25 -60.75 Z M 25.5 -60.75 "/></g></g></g><g fill="#1d1842" fill-opacity="1"><g transform="translate(666.676213, 110.999993)"><g><path d="M 65.09375 -60.75 L 65.09375 0 L 44.859375 0 L 44.859375 -40.53125 L 24.5625 -40.53125 L 24.5625 0 L 4.34375 0 L 4.34375 -60.75 Z M 65.09375 -60.75 "/></g></g></g><g fill="#1d1842" fill-opacity="1"><g transform="translate(742.1632, 110.999993)"><g><path d="M 65.09375 -60.75 L 65.09375 0 L 44.859375 0 L 44.859375 -40.53125 L 24.5625 -40.53125 L 24.5625 0 L 4.34375 0 L 4.34375 -60.75 Z M 65.09375 -60.75 "/></g></g></g><g fill="#1d1842" fill-opacity="1"><g transform="translate(817.650211, 110.999993)"><g><path d="M 52.578125 -60.75 L 72.796875 0 L 51.546875 0 L 49.890625 -5.03125 L 27.15625 -5.03125 L 25.5 0 L 4.25 0 L 24.46875 -60.75 Z M 32.28125 -20.21875 L 44.859375 -20.21875 L 38.53125 -39.140625 Z M 32.28125 -20.21875 "/></g></g></g><g fill="#1d1842" fill-opacity="1"><g transform="translate(929.579647, 110.999993)"><g><path d="M 3.46875 -40.53125 L 3.46875 -41.828125 C 3.46875 -44.660156 4.003906 -47.304688 5.078125 -49.765625 C 6.148438 -52.222656 7.609375 -54.363281 9.453125 -56.1875 C 11.304688 -58.007812 13.460938 -59.441406 15.921875 -60.484375 C 18.378906 -61.523438 21 -62.046875 23.78125 -62.046875 L 44.078125 -62.046875 C 46.859375 -62.046875 49.476562 -61.550781 51.9375 -60.5625 C 54.394531 -59.582031 56.535156 -58.238281 58.359375 -56.53125 C 60.179688 -54.832031 61.628906 -52.835938 62.703125 -50.546875 C 63.773438 -48.265625 64.3125 -45.820312 64.3125 -43.21875 C 64.3125 -40.4375 63.773438 -37.960938 62.703125 -35.796875 C 61.628906 -33.628906 60.425781 -31.820312 59.09375 -30.375 C 60.425781 -28.925781 61.628906 -27.117188 62.703125 -24.953125 C 63.773438 -22.785156 64.3125 -20.3125 64.3125 -17.53125 C 64.3125 -14.925781 63.773438 -12.476562 62.703125 -10.1875 C 61.628906 -7.90625 60.179688 -5.910156 58.359375 -4.203125 C 56.535156 -2.503906 54.394531 -1.160156 51.9375 -0.171875 C 49.476562 0.804688 46.859375 1.296875 44.078125 1.296875 L 23.78125 1.296875 C 21 1.296875 18.378906 0.773438 15.921875 -0.265625 C 13.460938 -1.304688 11.304688 -2.738281 9.453125 -4.5625 C 7.609375 -6.382812 6.148438 -8.523438 5.078125 -10.984375 C 4.003906 -13.441406 3.46875 -16.085938 3.46875 -18.921875 L 3.46875 -20.21875 L 23.78125 -20.21875 C 23.78125 -19.175781 24.15625 -18.28125 24.90625 -17.53125 C 25.65625 -16.78125 26.550781 -16.40625 27.59375 -16.40625 L 40.265625 -16.40625 C 41.367188 -16.40625 42.28125 -16.796875 43 -17.578125 C 43.71875 -18.359375 44.078125 -19.269531 44.078125 -20.3125 C 44.078125 -21.351562 43.71875 -22.234375 43 -22.953125 C 42.28125 -23.671875 41.367188 -24.03125 40.265625 -24.03125 L 28.8125 -24.03125 L 28.8125 -36.703125 L 40.265625 -36.703125 C 41.367188 -36.703125 42.28125 -37.0625 43 -37.78125 C 43.71875 -38.507812 44.078125 -39.394531 44.078125 -40.4375 C 44.078125 -41.476562 43.71875 -42.390625 43 -43.171875 C 42.28125 -43.953125 41.367188 -44.34375 40.265625 -44.34375 L 27.59375 -44.34375 C 26.550781 -44.34375 25.65625 -43.96875 24.90625 -43.21875 C 24.15625 -42.46875 23.78125 -41.570312 23.78125 -40.53125 Z M 3.46875 -40.53125 "/></g></g></g><path stroke-linecap="butt" transform="matrix(0.75, 0.000000000000000011, -0.000000000000000011, 0.75, 0.0000136, 149.521045)" fill="none" stroke-linejoin="miter" d="M -0.0000181333 1.997982 L 1920.000098 1.997982 " stroke="#1d1842" stroke-width="4" stroke-opacity="1" stroke-miterlimit="4"/></svg>