<svg xmlns="http://www.w3.org/2000/svg" xmlns:xlink="http://www.w3.org/1999/xlink" width="1920" zoomAndPan="magnify" viewBox="0 0 1440 179.999997" height="240" preserveAspectRatio="xMidYMid meet" version="1.0"><defs><g/><clipPath id="f869089f1e"><path d="M 0 0 L 1440 0 L 1440 179.890625 L 0 179.890625 Z M 0 0 " clip-rule="nonzero"/></clipPath></defs><g clip-path="url(#f869089f1e)"><path fill="#fc8620" d="M -15.320312 0 L 1455.414062 0 L 1455.414062 179.890625 L -15.320312 179.890625 Z M -15.320312 0 " fill-opacity="1" fill-rule="nonzero"/></g><g fill="#1d1842" fill-opacity="1"><g transform="translate(441.819617, 110.999993)"><g><path d="M 4.34375 -60.75 L 54.9375 -60.75 L 54.9375 -40.53125 L 24.5625 -40.53125 L 24.5625 0 L 4.34375 0 Z M 4.34375 -60.75 "/></g></g></g><g fill="#1d1842" fill-opacity="1"><g transform="translate(507.15502, 110.999993)"><g><path d="M 4.25 0 L 4.25 -60.75 L 39.65625 -60.75 C 43.125 -60.75 46.40625 -60.082031 49.5 -58.75 C 52.59375 -57.414062 55.28125 -55.609375 57.5625 -53.328125 C 59.851562 -51.046875 61.664062 -48.351562 63 -45.25 C 64.332031 -42.15625 65 -38.875 65 -35.40625 C 65 -31.9375 64.332031 -28.664062 63 -25.59375 C 61.664062 -22.53125 59.851562 -19.851562 57.5625 -17.5625 C 55.28125 -15.28125 52.59375 -13.472656 49.5 -12.140625 C 46.40625 -10.816406 43.125 -10.15625 39.65625 -10.15625 L 24.46875 -10.15625 L 24.46875 0 Z M 24.46875 -30.375 L 39.65625 -30.375 C 41.101562 -30.375 42.316406 -30.863281 43.296875 -31.84375 C 44.273438 -32.832031 44.765625 -34.019531 44.765625 -35.40625 C 44.765625 -36.851562 44.273438 -38.066406 43.296875 -39.046875 C 42.316406 -40.035156 41.101562 -40.53125 39.65625 -40.53125 L 24.46875 -40.53125 Z M 24.46875 -30.375 "/></g></g></g><g fill="#1d1842" fill-opacity="1"><g transform="translate(582.642019, 110.999993)"><g><path d="M 25.5 -60.75 L 35.65625 -30.375 L 41.46875 -30.375 L 51.546875 -60.75 L 72.796875 -60.75 L 52.578125 0 L 31.328125 0 L 34.703125 -10.15625 L 21.078125 -10.15625 L 4.25 -60.75 Z M 25.5 -60.75 "/></g></g></g><g fill="#1d1842" fill-opacity="1"><g transform="translate(665.937928, 110.999993)"><g><path d="M 65.09375 -60.75 L 65.09375 0 L 44.859375 0 L 44.859375 -40.53125 L 24.5625 -40.53125 L 24.5625 0 L 4.34375 0 L 4.34375 -60.75 Z M 65.09375 -60.75 "/></g></g></g><g fill="#1d1842" fill-opacity="1"><g transform="translate(741.424915, 110.999993)"><g><path d="M 65.09375 -60.75 L 65.09375 0 L 44.859375 0 L 44.859375 -40.53125 L 24.5625 -40.53125 L 24.5625 0 L 4.34375 0 L 4.34375 -60.75 Z M 65.09375 -60.75 "/></g></g></g><g fill="#1d1842" fill-opacity="1"><g transform="translate(816.911926, 110.999993)"><g><path d="M 52.578125 -60.75 L 72.796875 0 L 51.546875 0 L 49.890625 -5.03125 L 27.15625 -5.03125 L 25.5 0 L 4.25 0 L 24.46875 -60.75 Z M 32.28125 -20.21875 L 44.859375 -20.21875 L 38.53125 -39.140625 Z M 32.28125 -20.21875 "/></g></g></g><g fill="#1d1842" fill-opacity="1"><g transform="translate(928.841362, 110.999993)"><g><path d="M 4.421875 -9.8125 C 4.421875 -18.25 6.648438 -24.347656 11.109375 -28.109375 C 14.640625 -31.066406 18.847656 -33.195312 23.734375 -34.5 C 28.617188 -35.800781 34.390625 -36.566406 41.046875 -36.796875 C 42.085938 -36.847656 42.96875 -37.234375 43.6875 -37.953125 C 44.414062 -38.679688 44.78125 -39.539062 44.78125 -40.53125 C 44.78125 -41.570312 44.398438 -42.46875 43.640625 -43.21875 C 42.890625 -43.96875 42.023438 -44.34375 41.046875 -44.34375 L 28.375 -44.34375 C 27.445312 -44.34375 26.59375 -43.992188 25.8125 -43.296875 C 25.03125 -42.609375 24.640625 -41.6875 24.640625 -40.53125 L 4.421875 -40.53125 L 4.421875 -41.828125 C 4.421875 -44.609375 4.957031 -47.226562 6.03125 -49.6875 C 7.101562 -52.144531 8.550781 -54.285156 10.375 -56.109375 C 12.195312 -57.929688 14.335938 -59.375 16.796875 -60.4375 C 19.253906 -61.507812 21.867188 -62.046875 24.640625 -62.046875 L 44.78125 -62.046875 C 47.550781 -62.046875 50.164062 -61.507812 52.625 -60.4375 C 55.09375 -59.375 57.234375 -57.929688 59.046875 -56.109375 C 60.867188 -54.285156 62.316406 -52.144531 63.390625 -49.6875 C 64.460938 -47.226562 65 -44.609375 65 -41.828125 C 65 -38.472656 64.492188 -35.609375 63.484375 -33.234375 C 62.472656 -30.859375 61.082031 -28.90625 59.3125 -27.375 C 57.550781 -25.84375 55.425781 -24.710938 52.9375 -23.984375 C 50.445312 -23.265625 47.726562 -22.90625 44.78125 -22.90625 C 42.582031 -22.90625 40.570312 -22.90625 38.75 -22.90625 C 36.925781 -22.90625 35.257812 -22.816406 33.75 -22.640625 C 32.25 -22.472656 30.863281 -22.203125 29.59375 -21.828125 C 28.320312 -21.453125 27.109375 -20.914062 25.953125 -20.21875 L 62.484375 -20.21875 L 62.484375 0 L 4.421875 0 Z M 4.421875 -9.8125 "/></g></g></g><path stroke-linecap="butt" transform="matrix(0.75, 0.000000000000000011, -0.000000000000000011, 0.75, 0.0000136, 149.52103)" fill="none" stroke-linejoin="miter" d="M -0.0000181333 1.998002 L 1920.000098 1.998002 " stroke="#1d1842" stroke-width="4" stroke-opacity="1" stroke-miterlimit="4"/></svg>