<svg xmlns="http://www.w3.org/2000/svg" xmlns:xlink="http://www.w3.org/1999/xlink" width="1920" zoomAndPan="magnify" viewBox="0 0 1440 179.999997" height="240" preserveAspectRatio="xMidYMid meet" version="1.0"><defs><g/><clipPath id="01274ba0a5"><path d="M 0 0 L 1440 0 L 1440 179.890625 L 0 179.890625 Z M 0 0 " clip-rule="nonzero"/></clipPath></defs><g clip-path="url(#01274ba0a5)"><path fill="#fc8620" d="M -15.320312 0 L 1455.414062 0 L 1455.414062 179.890625 L -15.320312 179.890625 Z M -15.320312 0 " fill-opacity="1" fill-rule="nonzero"/></g><g fill="#1d1842" fill-opacity="1"><g transform="translate(442.20634, 110.999993)"><g><path d="M 4.34375 -60.75 L 54.9375 -60.75 L 54.9375 -40.53125 L 24.5625 -40.53125 L 24.5625 0 L 4.34375 0 Z M 4.34375 -60.75 "/></g></g></g><g fill="#1d1842" fill-opacity="1"><g transform="translate(507.541743, 110.999993)"><g><path d="M 4.25 0 L 4.25 -60.75 L 39.65625 -60.75 C 43.125 -60.75 46.40625 -60.082031 49.5 -58.75 C 52.59375 -57.414062 55.28125 -55.609375 57.5625 -53.328125 C 59.851562 -51.046875 61.664062 -48.351562 63 -45.25 C 64.332031 -42.15625 65 -38.875 65 -35.40625 C 65 -31.9375 64.332031 -28.664062 63 -25.59375 C 61.664062 -22.53125 59.851562 -19.851562 57.5625 -17.5625 C 55.28125 -15.28125 52.59375 -13.472656 49.5 -12.140625 C 46.40625 -10.816406 43.125 -10.15625 39.65625 -10.15625 L 24.46875 -10.15625 L 24.46875 0 Z M 24.46875 -30.375 L 39.65625 -30.375 C 41.101562 -30.375 42.316406 -30.863281 43.296875 -31.84375 C 44.273438 -32.832031 44.765625 -34.019531 44.765625 -35.40625 C 44.765625 -36.851562 44.273438 -38.066406 43.296875 -39.046875 C 42.316406 -40.035156 41.101562 -40.53125 39.65625 -40.53125 L 24.46875 -40.53125 Z M 24.46875 -30.375 "/></g></g></g><g fill="#1d1842" fill-opacity="1"><g transform="translate(583.028742, 110.999993)"><g><path d="M 25.5 -60.75 L 35.65625 -30.375 L 41.46875 -30.375 L 51.546875 -60.75 L 72.796875 -60.75 L 52.578125 0 L 31.328125 0 L 34.703125 -10.15625 L 21.078125 -10.15625 L 4.25 -60.75 Z M 25.5 -60.75 "/></g></g></g><g fill="#1d1842" fill-opacity="1"><g transform="translate(666.32465, 110.999993)"><g><path d="M 65.09375 -60.75 L 65.09375 0 L 44.859375 0 L 44.859375 -40.53125 L 24.5625 -40.53125 L 24.5625 0 L 4.34375 0 L 4.34375 -60.75 Z M 65.09375 -60.75 "/></g></g></g><g fill="#1d1842" fill-opacity="1"><g transform="translate(741.811638, 110.999993)"><g><path d="M 65.09375 -60.75 L 65.09375 0 L 44.859375 0 L 44.859375 -40.53125 L 24.5625 -40.53125 L 24.5625 0 L 4.34375 0 L 4.34375 -60.75 Z M 65.09375 -60.75 "/></g></g></g><g fill="#1d1842" fill-opacity="1"><g transform="translate(817.298648, 110.999993)"><g><path d="M 52.578125 -60.75 L 72.796875 0 L 51.546875 0 L 49.890625 -5.03125 L 27.15625 -5.03125 L 25.5 0 L 4.25 0 L 24.46875 -60.75 Z M 32.28125 -20.21875 L 44.859375 -20.21875 L 38.53125 -39.140625 Z M 32.28125 -20.21875 "/></g></g></g><g fill="#1d1842" fill-opacity="1"><g transform="translate(929.228085, 110.999993)"><g><path d="M 47.375 -60.75 L 35.0625 -39.140625 L 44.859375 -39.140625 C 47.640625 -39.140625 50.257812 -38.601562 52.71875 -37.53125 C 55.175781 -36.457031 57.316406 -35.007812 59.140625 -33.1875 C 60.960938 -31.363281 62.410156 -29.222656 63.484375 -26.765625 C 64.554688 -24.304688 65.09375 -21.691406 65.09375 -18.921875 C 65.09375 -16.140625 64.554688 -13.519531 63.484375 -11.0625 C 62.410156 -8.601562 60.960938 -6.460938 59.140625 -4.640625 C 57.316406 -2.816406 55.175781 -1.367188 52.71875 -0.296875 C 50.257812 0.765625 47.640625 1.296875 44.859375 1.296875 L 23.6875 1.296875 C 20.914062 1.296875 18.3125 0.765625 15.875 -0.296875 C 13.445312 -1.367188 11.320312 -2.816406 9.5 -4.640625 C 7.675781 -6.460938 6.226562 -8.601562 5.15625 -11.0625 C 4.09375 -13.519531 3.5625 -16.140625 3.5625 -18.921875 C 3.5625 -22.503906 4.457031 -25.828125 6.25 -28.890625 C 9.195312 -34.273438 12.144531 -39.597656 15.09375 -44.859375 C 18.050781 -50.128906 21.003906 -55.425781 23.953125 -60.75 Z M 27.515625 -23.953125 C 26.472656 -23.953125 25.570312 -23.578125 24.8125 -22.828125 C 24.0625 -22.078125 23.6875 -21.179688 23.6875 -20.140625 C 23.6875 -19.148438 24.0625 -18.28125 24.8125 -17.53125 C 25.570312 -16.78125 26.472656 -16.40625 27.515625 -16.40625 L 41.046875 -16.40625 C 42.085938 -16.40625 42.984375 -16.78125 43.734375 -17.53125 C 44.484375 -18.28125 44.859375 -19.148438 44.859375 -20.140625 C 44.859375 -21.179688 44.484375 -22.078125 43.734375 -22.828125 C 42.984375 -23.578125 42.085938 -23.953125 41.046875 -23.953125 Z M 27.515625 -23.953125 "/></g></g></g><path stroke-linecap="butt" transform="matrix(0.75, 0.000000000000000011, -0.000000000000000011, 0.75, 0.0000136, 149.520987)" fill="none" stroke-linejoin="miter" d="M -0.0000181333 1.998059 L 1920.000098 1.998059 " stroke="#1d1842" stroke-width="4" stroke-opacity="1" stroke-miterlimit="4"/></svg>