<svg xmlns="http://www.w3.org/2000/svg" xmlns:xlink="http://www.w3.org/1999/xlink" width="150" zoomAndPan="magnify" viewBox="0 0 112.5 599.999986" height="800" preserveAspectRatio="xMidYMid meet" version="1.0"><defs><clipPath id="700a09f68f"><path d="M 12 1.328125 L 100 1.328125 L 100 123.777344 L 12 123.777344 Z M 12 1.328125 " clip-rule="nonzero"/></clipPath><clipPath id="804e72e062"><path d="M 50 124.125 L 87 124.125 L 87 180 L 50 180 Z M 50 124.125 " clip-rule="nonzero"/></clipPath><clipPath id="a2533aaa9c"><path d="M 33 178 L 56 178 L 56 235.378906 L 33 235.378906 Z M 33 178 " clip-rule="nonzero"/></clipPath><clipPath id="b775b6f17d"><path d="M 9 248.132812 L 42 248.132812 L 42 351.171875 L 9 351.171875 Z M 9 248.132812 " clip-rule="nonzero"/></clipPath><clipPath id="a81d3e0242"><path d="M 2.367188 271 L 106 271 L 106 308 L 2.367188 308 Z M 2.367188 271 " clip-rule="nonzero"/></clipPath><clipPath id="c01393f181"><path d="M 12 364.734375 L 100 364.734375 L 100 487.191406 L 12 487.191406 Z M 12 364.734375 " clip-rule="nonzero"/></clipPath><clipPath id="d828ad56b2"><path d="M 28 542 L 65 542 L 65 598.664062 L 28 598.664062 Z M 28 542 " clip-rule="nonzero"/></clipPath><clipPath id="b42003621f"><path d="M 59 487.40625 L 82 487.40625 L 82 545 L 59 545 Z M 59 487.40625 " clip-rule="nonzero"/></clipPath></defs><path fill="#e3d9c2" d="M 69.546875 30.332031 L 58.085938 109.761719 L 77.667969 112.042969 L 81.859375 25.832031 Z M 69.546875 30.332031 " fill-opacity="1" fill-rule="nonzero"/><path fill="#d11513" d="M 21.585938 119.863281 L 25.289062 93.933594 L 42.933594 99.316406 L 41.660156 122.308594 Z M 21.585938 119.863281 " fill-opacity="1" fill-rule="nonzero"/><path fill="#60a3b9" d="M 56.601562 5.53125 L 49.625 99.160156 L 57.980469 100.132812 L 69 6.976562 Z M 56.601562 5.53125 " fill-opacity="1" fill-rule="nonzero"/><g clip-path="url(#700a09f68f)"><path fill="#fc8620" d="M 42.355469 26.433594 L 43.886719 1.324219 L 48.761719 1.621094 L 47.226562 26.734375 Z M 17.320312 124.007812 L 21.449219 99.191406 L 16.632812 98.390625 L 12.007812 124.117188 Z M 80.996094 91.351562 L 85.585938 88.230469 C 83.742188 85.519531 84.445312 81.828125 87.15625 79.984375 C 89.863281 78.140625 93.554688 78.84375 95.398438 81.554688 L 99.988281 78.433594 C 96.421875 73.1875 89.277344 71.828125 84.035156 75.394531 C 78.789062 78.964844 77.429688 86.105469 80.996094 91.351562 Z M 80.996094 91.351562 " fill-opacity="1" fill-rule="nonzero"/></g><g clip-path="url(#804e72e062)"><path fill="#e3d9c2" d="M 86.917969 178.867188 L 71.050781 124.125 C 55.933594 128.507812 47.230469 144.3125 51.609375 159.429688 C 55.992188 174.546875 71.800781 183.25 86.917969 178.867188 Z M 86.917969 178.867188 " fill-opacity="1" fill-rule="nonzero"/></g><path fill="#60a3b9" d="M 57.871094 205.761719 L 62.117188 202.871094 C 60.410156 200.363281 61.0625 196.945312 63.570312 195.234375 C 66.082031 193.527344 69.5 194.179688 71.207031 196.6875 L 75.453125 193.800781 C 72.152344 188.941406 65.539062 187.683594 60.683594 190.988281 C 55.824219 194.292969 54.566406 200.90625 57.871094 205.761719 Z M 57.871094 205.761719 " fill-opacity="1" fill-rule="nonzero"/><g clip-path="url(#a2533aaa9c)"><path fill="#d11513" d="M 55.449219 180.664062 L 45.761719 235.597656 L 33.21875 233.386719 L 42.90625 178.449219 Z M 55.449219 180.664062 " fill-opacity="1" fill-rule="nonzero"/></g><path fill="#fc8620" d="M 15.023438 165.167969 L 16.101562 162.121094 L 99.644531 191.730469 L 98.5625 194.773438 Z M 99.925781 143.285156 C 99.925781 137.363281 95.125 132.5625 89.203125 132.5625 C 83.277344 132.5625 78.476562 137.363281 78.476562 143.285156 C 78.476562 149.207031 83.277344 154.011719 89.203125 154.011719 C 95.125 154.011719 99.925781 149.207031 99.925781 143.285156 Z M 99.925781 143.285156 " fill-opacity="1" fill-rule="nonzero"/><path fill="#fc8620" d="M 96.6875 325.015625 L 3.433594 302.183594 L 5.445312 291.542969 L 99.238281 319.8125 Z M 96.6875 325.015625 " fill-opacity="1" fill-rule="nonzero"/><g clip-path="url(#b775b6f17d)"><path fill="#d11513" d="M 32.753906 248.230469 L 9.65625 342.574219 L 41.148438 351.398438 Z M 32.753906 248.230469 " fill-opacity="1" fill-rule="nonzero"/></g><path fill="#e3d9c2" d="M 61.925781 333.832031 L 27.324219 323.316406 L 29.113281 320.113281 L 63.394531 328.992188 Z M 41.148438 291.0625 L 6.863281 282.1875 L 5.074219 285.386719 L 39.675781 295.902344 Z M 41.148438 291.0625 " fill-opacity="1" fill-rule="nonzero"/><path fill="#60a3b9" d="M 102.730469 272.558594 L 94.902344 278.601562 C 98.46875 283.226562 97.613281 289.867188 92.984375 293.4375 C 88.359375 297.003906 81.71875 296.148438 78.148438 291.523438 L 70.320312 297.5625 C 77.222656 306.511719 90.074219 308.171875 99.027344 301.265625 C 107.976562 294.363281 109.636719 281.511719 102.730469 272.558594 Z M 102.730469 272.558594 " fill-opacity="1" fill-rule="nonzero"/><g clip-path="url(#a81d3e0242)"><path fill="#fc8620" d="M 101.988281 307.757812 L 101.117188 284.644531 L 105.433594 284.046875 L 105.019531 307.644531 Z M 7.5 271.921875 C 4.664062 271.921875 2.367188 274.21875 2.367188 277.054688 C 2.367188 279.886719 4.664062 282.1875 7.5 282.1875 C 10.335938 282.1875 12.632812 279.886719 12.632812 277.054688 C 12.632812 274.21875 10.335938 271.921875 7.5 271.921875 Z M 7.5 271.921875 " fill-opacity="1" fill-rule="nonzero"/></g><path fill="#60a3b9" d="M 42.453125 458.183594 L 53.914062 378.753906 L 34.332031 376.472656 L 30.144531 462.683594 Z M 42.453125 458.183594 " fill-opacity="1" fill-rule="nonzero"/><path fill="#d11513" d="M 90.417969 368.652344 L 86.710938 394.578125 L 69.070312 389.199219 L 70.339844 366.207031 Z M 90.417969 368.652344 " fill-opacity="1" fill-rule="nonzero"/><path fill="#fc8620" d="M 55.398438 482.984375 L 62.375 389.355469 L 54.019531 388.382812 L 43.003906 481.539062 Z M 55.398438 482.984375 " fill-opacity="1" fill-rule="nonzero"/><g clip-path="url(#c01393f181)"><path fill="#e3d9c2" d="M 69.648438 462.078125 L 68.113281 487.191406 L 63.238281 486.894531 L 64.773438 461.78125 Z M 94.679688 364.503906 L 90.550781 389.324219 L 95.371094 390.125 L 99.996094 364.394531 Z M 31.003906 397.164062 L 26.417969 400.285156 C 28.257812 402.996094 27.558594 406.6875 24.847656 408.53125 C 22.136719 410.375 18.445312 409.671875 16.601562 406.960938 L 12.011719 410.082031 C 15.582031 415.328125 22.722656 416.6875 27.96875 413.117188 C 33.210938 409.550781 34.570312 402.40625 31.003906 397.164062 Z M 31.003906 397.164062 " fill-opacity="1" fill-rule="nonzero"/></g><g clip-path="url(#d828ad56b2)"><path fill="#fc8620" d="M 28.039062 543.917969 L 43.90625 598.664062 C 59.023438 594.28125 67.726562 578.476562 63.34375 563.359375 C 58.964844 548.242188 43.15625 539.539062 28.039062 543.917969 Z M 28.039062 543.917969 " fill-opacity="1" fill-rule="nonzero"/></g><path fill="#d11513" d="M 57.085938 517.027344 L 52.835938 519.917969 C 54.542969 522.425781 53.894531 525.84375 51.382812 527.550781 C 48.875 529.257812 45.457031 528.609375 43.75 526.097656 L 39.5 528.988281 C 42.804688 533.84375 49.417969 535.101562 54.273438 531.800781 C 59.128906 528.496094 60.386719 521.882812 57.085938 517.027344 Z M 57.085938 517.027344 " fill-opacity="1" fill-rule="nonzero"/><g clip-path="url(#b42003621f)"><path fill="#60a3b9" d="M 59.503906 542.125 L 69.195312 487.191406 L 81.738281 489.402344 L 72.046875 544.335938 Z M 59.503906 542.125 " fill-opacity="1" fill-rule="nonzero"/></g><path fill="#e3d9c2" d="M 99.933594 557.621094 L 98.851562 560.667969 L 15.3125 531.058594 L 16.390625 528.011719 Z M 15.03125 579.5 C 15.03125 585.425781 19.832031 590.226562 25.753906 590.226562 C 31.675781 590.226562 36.476562 585.425781 36.476562 579.5 C 36.476562 573.578125 31.675781 568.777344 25.753906 568.777344 C 19.832031 568.777344 15.03125 573.578125 15.03125 579.5 Z M 15.03125 579.5 " fill-opacity="1" fill-rule="nonzero"/></svg>