<svg xmlns="http://www.w3.org/2000/svg" xmlns:xlink="http://www.w3.org/1999/xlink" width="400" zoomAndPan="magnify" viewBox="0 0 300 112.499997" height="150" preserveAspectRatio="xMidYMid meet" version="1.0"><defs><g/><clipPath id="49093bbf92"><path d="M 14.394531 14.042969 L 104.804688 14.042969 L 104.804688 104.453125 L 14.394531 104.453125 Z M 14.394531 14.042969 " clip-rule="nonzero"/></clipPath><clipPath id="7a21280ac0"><path d="M 59.597656 14.042969 C 34.632812 14.042969 14.394531 34.28125 14.394531 59.246094 C 14.394531 84.214844 34.632812 104.453125 59.597656 104.453125 C 84.566406 104.453125 104.804688 84.214844 104.804688 59.246094 C 104.804688 34.28125 84.566406 14.042969 59.597656 14.042969 Z M 59.597656 14.042969 " clip-rule="nonzero"/></clipPath><clipPath id="faa7a0a014"><path d="M 0.664062 0 L 69.945312 0 L 69.945312 69.28125 L 0.664062 69.28125 Z M 0.664062 0 " clip-rule="nonzero"/></clipPath><clipPath id="e5915fc5e3"><path d="M 35.304688 0 C 16.171875 0 0.664062 15.507812 0.664062 34.640625 C 0.664062 53.769531 16.171875 69.28125 35.304688 69.28125 C 54.433594 69.28125 69.945312 53.769531 69.945312 34.640625 C 69.945312 15.507812 54.433594 0 35.304688 0 Z M 35.304688 0 " clip-rule="nonzero"/></clipPath></defs><g clip-path="url(#49093bbf92)"><g clip-path="url(#7a21280ac0)"><path fill="#60a3b9" d="M 14.394531 14.042969 L 104.804688 14.042969 L 104.804688 104.453125 L 14.394531 104.453125 Z M 14.394531 14.042969 " fill-opacity="1" fill-rule="nonzero"/></g></g><g clip-path="url(#faa7a0a014)"><g clip-path="url(#e5915fc5e3)"><path stroke-linecap="butt" transform="matrix(0.807636, 0, 0, 0.807636, 0.663721, 0.000000000000049049)" fill="none" stroke-linejoin="miter" d="M 42.891785 -0.000000000000060731 C 19.201901 -0.000000000000060731 0.000422598 19.201478 0.000422598 42.891362 C 0.000422598 66.57641 19.201901 85.782724 42.891785 85.782724 C 66.576832 85.782724 85.783147 66.57641 85.783147 42.891362 C 85.783147 19.201478 66.576832 -0.000000000000060731 42.891785 -0.000000000000060731 Z M 42.891785 -0.000000000000060731 " stroke="#fc8620" stroke-width="7.396213" stroke-opacity="1" stroke-miterlimit="4"/></g></g><g fill="#fc8620" fill-opacity="1"><g transform="translate(69.947972, 92.623245)"><g><path d="M 2.859375 0 L 16.203125 -20.03125 L 2.859375 -40.0625 L 18.09375 -40.0625 L 29.640625 -22.71875 L 29.640625 -40 L 42.984375 -40 L 42.984375 -22.71875 L 54.546875 -40.0625 L 69.765625 -40.0625 L 56.4375 -20.03125 L 69.765625 0 L 54.546875 0 L 42.984375 -17.34375 L 42.984375 0 L 29.640625 0 L 29.640625 -17.34375 L 18.09375 0 Z M 2.859375 0 "/></g></g></g><g fill="#fc8620" fill-opacity="1"><g transform="translate(142.571396, 92.623245)"><g><path d="M 2.859375 -40.0625 L 16.203125 -40.0625 L 16.203125 -24.78125 L 20.03125 -24.78125 C 20.5625 -27.1875 21.484375 -29.425781 22.796875 -31.5 C 24.117188 -33.582031 25.703125 -35.375 27.546875 -36.875 C 29.398438 -38.382812 31.488281 -39.566406 33.8125 -40.421875 C 36.144531 -41.285156 38.609375 -41.71875 41.203125 -41.71875 C 44.179688 -41.71875 46.988281 -41.144531 49.625 -40 C 52.257812 -38.863281 54.554688 -37.3125 56.515625 -35.34375 C 58.484375 -33.375 60.039062 -31.0625 61.1875 -28.40625 C 62.332031 -25.757812 62.90625 -22.945312 62.90625 -19.96875 C 62.90625 -17 62.332031 -14.195312 61.1875 -11.5625 C 60.039062 -8.925781 58.484375 -6.625 56.515625 -4.65625 C 54.554688 -2.695312 52.257812 -1.144531 49.625 0 C 46.988281 1.144531 44.179688 1.71875 41.203125 1.71875 C 38.609375 1.71875 36.144531 1.285156 33.8125 0.421875 C 31.488281 -0.429688 29.390625 -1.617188 27.515625 -3.140625 C 25.648438 -4.671875 24.0625 -6.46875 22.75 -8.53125 C 21.4375 -10.59375 20.507812 -12.84375 19.96875 -15.28125 L 16.203125 -15.28125 L 16.203125 0 L 2.859375 0 Z M 41.203125 -11.5 C 42.347656 -11.5 43.425781 -11.71875 44.4375 -12.15625 C 45.445312 -12.601562 46.332031 -13.207031 47.09375 -13.96875 C 47.863281 -14.726562 48.46875 -15.625 48.90625 -16.65625 C 49.34375 -17.6875 49.5625 -18.789062 49.5625 -19.96875 C 49.5625 -21.15625 49.34375 -22.265625 48.90625 -23.296875 C 48.46875 -24.328125 47.863281 -25.234375 47.09375 -26.015625 C 46.332031 -26.796875 45.445312 -27.40625 44.4375 -27.84375 C 43.425781 -28.28125 42.347656 -28.5 41.203125 -28.5 C 40.054688 -28.5 38.96875 -28.28125 37.9375 -27.84375 C 36.914062 -27.40625 36.019531 -26.796875 35.25 -26.015625 C 34.488281 -25.234375 33.890625 -24.328125 33.453125 -23.296875 C 33.015625 -22.265625 32.796875 -21.15625 32.796875 -19.96875 C 32.796875 -18.789062 33.015625 -17.6875 33.453125 -16.65625 C 33.890625 -15.625 34.488281 -14.726562 35.25 -13.96875 C 36.019531 -13.207031 36.914062 -12.601562 37.9375 -12.15625 C 38.96875 -11.71875 40.054688 -11.5 41.203125 -11.5 Z M 41.203125 -11.5 "/></g></g></g><g fill="#fc8620" fill-opacity="1"><g transform="translate(207.755069, 92.623245)"><g><path d="M 2.796875 0 L 2.796875 -40.0625 L 26.15625 -40.0625 C 28.4375 -40.0625 30.597656 -39.625 32.640625 -38.75 C 34.679688 -37.875 36.457031 -36.679688 37.96875 -35.171875 C 39.476562 -33.660156 40.671875 -31.882812 41.546875 -29.84375 C 42.421875 -27.800781 42.859375 -25.640625 42.859375 -23.359375 C 42.859375 -21.066406 42.421875 -18.90625 41.546875 -16.875 C 40.671875 -14.851562 39.476562 -13.085938 37.96875 -11.578125 C 36.457031 -10.078125 34.679688 -8.890625 32.640625 -8.015625 C 30.597656 -7.140625 28.4375 -6.703125 26.15625 -6.703125 L 16.140625 -6.703125 L 16.140625 0 Z M 16.140625 -20.03125 L 26.15625 -20.03125 C 27.101562 -20.03125 27.898438 -20.351562 28.546875 -21 C 29.203125 -21.65625 29.53125 -22.441406 29.53125 -23.359375 C 29.53125 -24.304688 29.203125 -25.101562 28.546875 -25.75 C 27.898438 -26.40625 27.101562 -26.734375 26.15625 -26.734375 L 16.140625 -26.734375 Z M 16.140625 -20.03125 "/></g></g></g><g fill="#fc8620" fill-opacity="1"><g transform="translate(253.538172, 92.623245)"><g><path d="M 29.59375 0 L 29.59375 -19 L 16.203125 0 L 2.859375 0 L 2.859375 -40.0625 L 16.203125 -40.0625 L 16.203125 -21.0625 L 29.59375 -40.0625 L 42.921875 -40.0625 L 42.921875 0 Z M 29.59375 0 "/></g></g></g></svg>