<svg xmlns="http://www.w3.org/2000/svg" xmlns:xlink="http://www.w3.org/1999/xlink" width="200" zoomAndPan="magnify" viewBox="0 0 150 809.999993" height="1080" preserveAspectRatio="xMidYMid meet" version="1.0"><defs><g/></defs><path fill="#60a3b9" d="M 0 810 L 0 0.25 L 150.871094 0.25 L 150.871094 810 Z M 0 810 " fill-opacity="1" fill-rule="nonzero"/><path stroke-linecap="butt" transform="matrix(0, 0.75, -0.75, 0, 140.095292, 0.00002)" fill="none" stroke-linejoin="miter" d="M -0.0000266667 3.002056 L 1080.000028 3.002056 " stroke="#1d1842" stroke-width="6" stroke-opacity="1" stroke-miterlimit="4"/><g fill="#f8ebd9" fill-opacity="1"><g transform="translate(31.210856, 141.300016)"><g><path d="M 35.921875 0 L 35.921875 -4.109375 L 23.53125 -4.109375 C 20.695312 -4.109375 18.015625 -4.648438 15.484375 -5.734375 C 12.953125 -6.828125 10.753906 -8.304688 8.890625 -10.171875 C 7.023438 -12.035156 5.546875 -14.226562 4.453125 -16.75 C 3.367188 -19.28125 2.828125 -21.960938 2.828125 -24.796875 C 2.828125 -27.628906 3.367188 -30.3125 4.453125 -32.84375 C 5.546875 -35.375 7.023438 -37.570312 8.890625 -39.4375 C 10.753906 -41.300781 12.953125 -42.773438 15.484375 -43.859375 C 18.015625 -44.941406 20.695312 -45.484375 23.53125 -45.484375 L 35.921875 -45.484375 L 35.921875 -49.609375 L 52.5 -49.609375 L 52.5 -45.484375 L 64.90625 -45.484375 C 67.738281 -45.484375 70.414062 -44.941406 72.9375 -43.859375 C 75.46875 -42.773438 77.664062 -41.300781 79.53125 -39.4375 C 81.40625 -37.570312 82.882812 -35.375 83.96875 -32.84375 C 85.050781 -30.3125 85.59375 -27.628906 85.59375 -24.796875 C 85.59375 -21.960938 85.050781 -19.28125 83.96875 -16.75 C 82.882812 -14.226562 81.40625 -12.035156 79.53125 -10.171875 C 77.664062 -8.304688 75.46875 -6.828125 72.9375 -5.734375 C 70.414062 -4.648438 67.738281 -4.109375 64.90625 -4.109375 L 52.5 -4.109375 L 52.5 0 Z M 23.53125 -20.625 L 35.921875 -20.625 L 35.921875 -28.984375 L 23.53125 -28.984375 C 22.34375 -28.984375 21.347656 -28.566406 20.546875 -27.734375 C 19.742188 -26.910156 19.34375 -25.929688 19.34375 -24.796875 C 19.34375 -23.660156 19.742188 -22.679688 20.546875 -21.859375 C 21.347656 -21.035156 22.34375 -20.625 23.53125 -20.625 Z M 64.984375 -20.625 C 66.109375 -20.625 67.070312 -21.035156 67.875 -21.859375 C 68.6875 -22.679688 69.09375 -23.660156 69.09375 -24.796875 C 69.09375 -25.929688 68.6875 -26.910156 67.875 -27.734375 C 67.070312 -28.566406 66.109375 -28.984375 64.984375 -28.984375 L 52.5 -28.984375 L 52.5 -20.625 Z M 64.984375 -20.625 "/></g></g></g><g fill="#f8ebd9" fill-opacity="1"><g transform="translate(47.087418, 211.500016)"><g><path d="M 36.640625 0 L 36.640625 -23.53125 L 20.046875 0 L 3.546875 0 L 3.546875 -49.609375 L 20.046875 -49.609375 L 20.046875 -26.078125 L 36.640625 -49.609375 L 53.140625 -49.609375 L 53.140625 0 Z M 36.640625 0 "/></g></g></g><g fill="#f8ebd9" fill-opacity="1"><g transform="translate(47.087418, 281.700016)"><g><path d="M 19.96875 -49.609375 L 19.96875 -33.09375 L 36.5625 -33.09375 L 36.5625 -49.609375 L 53.0625 -49.609375 L 53.0625 0 L 36.5625 0 L 36.5625 -16.515625 L 19.96875 -16.515625 L 19.96875 0 L 3.46875 0 L 3.46875 -49.609375 Z M 19.96875 -49.609375 "/></g></g></g><g fill="#f8ebd9" fill-opacity="1"><g transform="translate(43.895231, 351.900016)"><g><path d="M 42.9375 -49.609375 L 59.4375 0 L 42.078125 0 L 40.734375 -4.109375 L 22.171875 -4.109375 L 20.828125 0 L 3.46875 0 L 19.96875 -49.609375 Z M 26.359375 -16.515625 L 36.625 -16.515625 L 31.453125 -31.953125 Z M 26.359375 -16.515625 "/></g></g></g><g fill="#f8ebd9" fill-opacity="1"><g transform="translate(43.824918, 422.100017)"><g><path d="M 43.15625 -49.609375 L 59.65625 0 L 42.234375 0 L 31.609375 -31.953125 L 20.96875 0 L 3.546875 0 L 20.046875 -49.609375 Z M 43.15625 -49.609375 "/></g></g></g><g fill="#f8ebd9" fill-opacity="1"><g transform="translate(47.087418, 492.300017)"><g><path d="M 36.640625 0 L 36.640625 -23.53125 L 20.046875 0 L 3.546875 0 L 3.546875 -49.609375 L 20.046875 -49.609375 L 20.046875 -26.078125 L 36.640625 -49.609375 L 53.140625 -49.609375 L 53.140625 0 Z M 36.640625 0 "/></g></g></g><g fill="#f8ebd9" fill-opacity="1"><g transform="translate(46.342106, 562.500017)"><g><path d="M 29.6875 2.125 C 26 2.125 22.515625 1.414062 19.234375 0 C 15.953125 -1.414062 13.09375 -3.335938 10.65625 -5.765625 C 8.226562 -8.203125 6.300781 -11.050781 4.875 -14.3125 C 3.457031 -17.570312 2.75 -21.066406 2.75 -24.796875 C 2.75 -28.484375 3.457031 -31.957031 4.875 -35.21875 C 6.300781 -38.476562 8.226562 -41.320312 10.65625 -43.75 C 13.09375 -46.1875 15.953125 -48.113281 19.234375 -49.53125 C 22.515625 -50.945312 26 -51.65625 29.6875 -51.65625 C 32.613281 -51.65625 35.421875 -51.207031 38.109375 -50.3125 C 40.804688 -49.414062 43.273438 -48.148438 45.515625 -46.515625 C 47.765625 -44.890625 49.726562 -42.941406 51.40625 -40.671875 C 53.082031 -38.398438 54.367188 -35.875 55.265625 -33.09375 L 38.1875 -30.828125 C 37.195312 -32.191406 35.941406 -33.273438 34.421875 -34.078125 C 32.910156 -34.878906 31.332031 -35.28125 29.6875 -35.28125 C 28.269531 -35.28125 26.929688 -35.007812 25.671875 -34.46875 C 24.421875 -33.925781 23.320312 -33.179688 22.375 -32.234375 C 21.4375 -31.296875 20.695312 -30.1875 20.15625 -28.90625 C 19.613281 -27.632812 19.34375 -26.265625 19.34375 -24.796875 C 19.34375 -23.378906 19.613281 -22.019531 20.15625 -20.71875 C 20.695312 -19.425781 21.4375 -18.304688 22.375 -17.359375 C 23.320312 -16.410156 24.421875 -15.65625 25.671875 -15.09375 C 26.929688 -14.53125 28.269531 -14.25 29.6875 -14.25 C 31.332031 -14.25 32.910156 -14.648438 34.421875 -15.453125 C 35.941406 -16.253906 37.195312 -17.335938 38.1875 -18.703125 L 55.265625 -16.4375 C 54.367188 -13.695312 53.082031 -11.179688 51.40625 -8.890625 C 49.726562 -6.597656 47.765625 -4.632812 45.515625 -3 C 43.273438 -1.375 40.804688 -0.113281 38.109375 0.78125 C 35.421875 1.675781 32.613281 2.125 29.6875 2.125 Z M 29.6875 2.125 "/></g></g></g><g fill="#f8ebd9" fill-opacity="1"><g transform="translate(47.087418, 632.700017)"><g><path d="M 53.0625 -49.609375 L 53.0625 -33.09375 L 36.5625 -33.09375 L 36.5625 0 L 19.96875 0 L 19.96875 -33.09375 L 3.46875 -33.09375 L 3.46875 -49.609375 Z M 53.0625 -49.609375 "/></g></g></g><g fill="#f8ebd9" fill-opacity="1"><g transform="translate(36.779606, 702.900017)"><g><path d="M 20.046875 -49.609375 L 20.046875 -41.3125 L 32.453125 -41.3125 C 35.285156 -41.3125 37.960938 -40.765625 40.484375 -39.671875 C 43.015625 -38.585938 45.210938 -37.113281 47.078125 -35.25 C 48.953125 -33.382812 50.429688 -31.195312 51.515625 -28.6875 C 52.597656 -26.1875 53.140625 -23.519531 53.140625 -20.6875 C 53.140625 -17.851562 52.597656 -15.171875 51.515625 -12.640625 C 50.429688 -10.117188 48.953125 -7.925781 47.078125 -6.0625 C 45.210938 -4.195312 43.015625 -2.71875 40.484375 -1.625 C 37.960938 -0.539062 35.285156 0 32.453125 0 L 3.546875 0 L 3.546875 -49.609375 Z M 73.765625 -49.609375 L 73.765625 0 L 57.25 0 L 57.25 -49.609375 Z M 20.046875 -16.515625 L 32.453125 -16.515625 C 33.628906 -16.515625 34.617188 -16.914062 35.421875 -17.71875 C 36.234375 -18.519531 36.640625 -19.507812 36.640625 -20.6875 C 36.640625 -21.820312 36.234375 -22.789062 35.421875 -23.59375 C 34.617188 -24.394531 33.628906 -24.796875 32.453125 -24.796875 L 20.046875 -24.796875 Z M 20.046875 -16.515625 "/></g></g></g></svg>