<svg xmlns="http://www.w3.org/2000/svg" xmlns:xlink="http://www.w3.org/1999/xlink" width="140" zoomAndPan="magnify" viewBox="0 0 104.88 809.999993" height="1080" preserveAspectRatio="xMidYMid meet" version="1.0"><defs><clipPath id="0a419cf712"><path d="M 46 0.464844 L 66 0.464844 L 66 89 L 46 89 Z M 46 0.464844 " clip-rule="nonzero"/></clipPath><clipPath id="dc599fe5f7"><path d="M 9.222656 0.464844 L 95.375 0.464844 L 95.375 112.085938 L 9.222656 112.085938 Z M 9.222656 0.464844 " clip-rule="nonzero"/></clipPath><clipPath id="565c3ef7fb"><path d="M 46 112.324219 L 83 112.324219 L 83 167 L 46 167 Z M 46 112.324219 " clip-rule="nonzero"/></clipPath><clipPath id="ea96b0d660"><path d="M 30 165 L 52 165 L 52 220.949219 L 30 220.949219 Z M 30 165 " clip-rule="nonzero"/></clipPath><clipPath id="d98e684a18"><path d="M 12.214844 120 L 95.371094 120 L 95.371094 182 L 12.214844 182 Z M 12.214844 120 " clip-rule="nonzero"/></clipPath><clipPath id="f20d231527"><path d="M 7 233.402344 L 38 233.402344 L 38 334.535156 L 7 334.535156 Z M 7 233.402344 " clip-rule="nonzero"/></clipPath><clipPath id="54514705bf"><path d="M 9.351562 346.949219 L 95.503906 346.949219 L 95.503906 466.8125 L 9.351562 466.8125 Z M 9.351562 346.949219 " clip-rule="nonzero"/></clipPath><clipPath id="993625d10b"><path d="M 25 521 L 61 521 L 61 575.652344 L 25 575.652344 Z M 25 521 " clip-rule="nonzero"/></clipPath><clipPath id="41eef882c9"><path d="M 55 467.027344 L 78 467.027344 L 78 523 L 55 523 Z M 55 467.027344 " clip-rule="nonzero"/></clipPath><clipPath id="51a1e8e1ba"><path d="M 12.25 506 L 95.40625 506 L 95.40625 568 L 12.25 568 Z M 12.25 506 " clip-rule="nonzero"/></clipPath><clipPath id="d859241db4"><path d="M 66 588 L 98 588 L 98 688.832031 L 66 688.832031 Z M 66 588 " clip-rule="nonzero"/></clipPath><clipPath id="df2b3ca1e5"><path d="M 4 630 L 104.726562 630 L 104.726562 666 L 4 666 Z M 4 630 " clip-rule="nonzero"/></clipPath><clipPath id="b66a2be0d4"><path d="M 9.222656 689.648438 L 95.375 689.648438 L 95.375 809.511719 L 9.222656 809.511719 Z M 9.222656 689.648438 " clip-rule="nonzero"/></clipPath></defs><path fill="#e3d9c2" d="M 65.589844 20.753906 L 54.398438 98.304688 L 73.519531 100.53125 L 77.609375 16.363281 Z M 65.589844 20.753906 " fill-opacity="1" fill-rule="nonzero"/><path fill="#d11513" d="M 18.761719 108.164062 L 22.378906 82.851562 L 39.605469 88.105469 L 38.363281 110.550781 Z M 18.761719 108.164062 " fill-opacity="1" fill-rule="nonzero"/><g clip-path="url(#0a419cf712)"><path fill="#60a3b9" d="M 52.953125 -3.460938 L 46.140625 87.953125 L 54.296875 88.902344 L 65.054688 -2.046875 Z M 52.953125 -3.460938 " fill-opacity="1" fill-rule="nonzero"/></g><g clip-path="url(#dc599fe5f7)"><path fill="#fc8620" d="M 39.039062 16.949219 L 40.539062 -7.566406 L 45.296875 -7.277344 L 43.800781 17.242188 Z M 14.601562 112.214844 L 18.632812 87.984375 L 13.925781 87.203125 L 9.410156 112.320312 Z M 76.769531 80.328125 L 81.246094 77.28125 C 79.449219 74.636719 80.132812 71.03125 82.78125 69.230469 C 85.425781 67.429688 89.03125 68.117188 90.832031 70.761719 L 95.308594 67.714844 C 91.828125 62.597656 84.851562 61.269531 79.734375 64.753906 C 74.613281 68.234375 73.285156 75.210938 76.769531 80.328125 Z M 76.769531 80.328125 " fill-opacity="1" fill-rule="nonzero"/></g><g clip-path="url(#565c3ef7fb)"><path fill="#e3d9c2" d="M 82.554688 165.773438 L 67.0625 112.324219 C 52.300781 116.601562 43.804688 132.035156 48.082031 146.796875 C 52.359375 161.554688 67.792969 170.054688 82.554688 165.773438 Z M 82.554688 165.773438 " fill-opacity="1" fill-rule="nonzero"/></g><path fill="#60a3b9" d="M 54.195312 192.035156 L 58.34375 189.210938 C 56.675781 186.761719 57.308594 183.425781 59.761719 181.757812 C 62.210938 180.089844 65.546875 180.726562 67.214844 183.175781 L 71.363281 180.355469 C 68.136719 175.613281 61.679688 174.382812 56.9375 177.609375 C 52.199219 180.835938 50.96875 187.292969 54.195312 192.035156 Z M 54.195312 192.035156 " fill-opacity="1" fill-rule="nonzero"/><g clip-path="url(#ea96b0d660)"><path fill="#d11513" d="M 51.832031 167.527344 L 42.371094 221.167969 L 30.125 219.007812 L 39.585938 165.367188 Z M 51.832031 167.527344 " fill-opacity="1" fill-rule="nonzero"/></g><g clip-path="url(#d98e684a18)"><path fill="#fc8620" d="M 12.359375 152.398438 L 13.410156 149.421875 L 94.980469 178.332031 L 93.925781 181.304688 Z M 95.257812 131.03125 C 95.257812 125.25 90.570312 120.5625 84.785156 120.5625 C 79.003906 120.5625 74.316406 125.25 74.316406 131.03125 C 74.316406 136.816406 79.003906 141.503906 84.785156 141.503906 C 90.570312 141.503906 95.257812 136.816406 95.257812 131.03125 Z M 95.257812 131.03125 " fill-opacity="1" fill-rule="nonzero"/></g><path fill="#fc8620" d="M 92.089844 308.476562 L 1.039062 286.183594 L 3.003906 275.792969 L 94.578125 303.390625 Z M 92.089844 308.476562 " fill-opacity="1" fill-rule="nonzero"/><g clip-path="url(#f20d231527)"><path fill="#d11513" d="M 29.667969 233.503906 L 7.113281 325.617188 L 37.863281 334.234375 Z M 29.667969 233.503906 " fill-opacity="1" fill-rule="nonzero"/></g><path fill="#e3d9c2" d="M 58.148438 317.082031 L 24.367188 306.8125 L 26.113281 303.6875 L 59.585938 312.355469 Z M 37.863281 275.324219 L 4.390625 266.65625 L 2.644531 269.78125 L 36.425781 280.050781 Z M 37.863281 275.324219 " fill-opacity="1" fill-rule="nonzero"/><path fill="#60a3b9" d="M 97.992188 257.257812 L 90.34375 263.15625 C 93.828125 267.671875 92.992188 274.160156 88.476562 277.640625 C 83.957031 281.125 77.472656 280.289062 73.988281 275.773438 L 66.34375 281.667969 C 73.085938 290.410156 85.632812 292.027344 94.371094 285.289062 C 103.113281 278.546875 104.730469 265.996094 97.992188 257.257812 Z M 97.992188 257.257812 " fill-opacity="1" fill-rule="nonzero"/><path fill="#fc8620" d="M 97.265625 291.625 L 96.414062 269.054688 L 100.628906 268.472656 L 100.226562 291.515625 Z M 5.011719 256.636719 C 2.242188 256.636719 0 258.878906 0 261.648438 C 0 264.414062 2.242188 266.65625 5.011719 266.65625 C 7.777344 266.65625 10.023438 264.414062 10.023438 261.648438 C 10.023438 258.878906 7.777344 256.636719 5.011719 256.636719 Z M 5.011719 256.636719 " fill-opacity="1" fill-rule="nonzero"/><path fill="#60a3b9" d="M 39.136719 438.492188 L 50.328125 360.945312 L 31.207031 358.714844 L 27.117188 442.886719 Z M 39.136719 438.492188 " fill-opacity="1" fill-rule="nonzero"/><path fill="#d11513" d="M 85.964844 351.082031 L 82.347656 376.394531 L 65.121094 371.144531 L 66.363281 348.695312 Z M 85.964844 351.082031 " fill-opacity="1" fill-rule="nonzero"/><path fill="#fc8620" d="M 51.777344 462.707031 L 58.585938 371.296875 L 50.429688 370.34375 L 39.671875 461.296875 Z M 51.777344 462.707031 " fill-opacity="1" fill-rule="nonzero"/><g clip-path="url(#54514705bf)"><path fill="#e3d9c2" d="M 65.6875 442.296875 L 64.1875 466.8125 L 59.429688 466.523438 L 60.929688 442.007812 Z M 90.125 347.03125 L 86.097656 371.261719 L 90.800781 372.046875 L 95.316406 346.925781 Z M 27.957031 378.917969 L 23.480469 381.964844 C 25.277344 384.613281 24.59375 388.214844 21.945312 390.015625 C 19.300781 391.816406 15.695312 391.128906 13.898438 388.484375 L 9.417969 391.53125 C 12.898438 396.652344 19.875 397.976562 24.992188 394.496094 C 30.113281 391.011719 31.441406 384.039062 27.957031 378.917969 Z M 27.957031 378.917969 " fill-opacity="1" fill-rule="nonzero"/></g><g clip-path="url(#993625d10b)"><path fill="#fc8620" d="M 25.066406 522.199219 L 40.558594 575.652344 C 55.320312 571.375 63.816406 555.941406 59.539062 541.179688 C 55.261719 526.417969 39.828125 517.921875 25.066406 522.199219 Z M 25.066406 522.199219 " fill-opacity="1" fill-rule="nonzero"/></g><path fill="#d11513" d="M 53.425781 495.941406 L 49.28125 498.761719 C 50.945312 501.214844 50.3125 504.550781 47.859375 506.21875 C 45.410156 507.886719 42.074219 507.25 40.40625 504.800781 L 36.257812 507.621094 C 39.484375 512.363281 45.941406 513.589844 50.683594 510.367188 C 55.425781 507.140625 56.652344 500.683594 53.425781 495.941406 Z M 53.425781 495.941406 " fill-opacity="1" fill-rule="nonzero"/><g clip-path="url(#41eef882c9)"><path fill="#60a3b9" d="M 55.789062 520.445312 L 65.25 466.808594 L 77.496094 468.96875 L 68.035156 522.605469 Z M 55.789062 520.445312 " fill-opacity="1" fill-rule="nonzero"/></g><g clip-path="url(#51a1e8e1ba)"><path fill="#e3d9c2" d="M 95.261719 535.578125 L 94.210938 538.550781 L 12.640625 509.640625 L 13.695312 506.667969 Z M 12.363281 556.941406 C 12.363281 562.726562 17.050781 567.414062 22.835938 567.414062 C 28.617188 567.414062 33.304688 562.726562 33.304688 556.941406 C 33.304688 551.160156 28.617188 546.472656 22.835938 546.472656 C 17.050781 546.472656 12.363281 551.160156 12.363281 556.941406 Z M 12.363281 556.941406 " fill-opacity="1" fill-rule="nonzero"/></g><path fill="#60a3b9" d="M 12.636719 613.757812 L 103.6875 636.050781 L 101.722656 646.441406 L 10.148438 618.839844 Z M 12.636719 613.757812 " fill-opacity="1" fill-rule="nonzero"/><g clip-path="url(#d859241db4)"><path fill="#f8ebd9" d="M 75.058594 688.730469 L 97.613281 596.617188 L 66.867188 588 Z M 75.058594 688.730469 " fill-opacity="1" fill-rule="nonzero"/></g><path fill="#fc8620" d="M 46.578125 605.152344 L 80.359375 615.421875 L 78.613281 618.542969 L 45.144531 609.878906 Z M 66.867188 646.90625 L 100.335938 655.574219 L 102.082031 652.453125 L 68.300781 642.183594 Z M 66.867188 646.90625 " fill-opacity="1" fill-rule="nonzero"/><path fill="#d11513" d="M 6.738281 664.976562 L 14.382812 659.078125 C 10.898438 654.5625 11.738281 648.074219 16.253906 644.589844 C 20.769531 641.109375 27.253906 641.945312 30.738281 646.460938 L 38.382812 640.5625 C 31.644531 631.824219 19.09375 630.207031 10.355469 636.945312 C 1.617188 643.6875 -0.00390625 656.234375 6.738281 664.976562 Z M 6.738281 664.976562 " fill-opacity="1" fill-rule="nonzero"/><g clip-path="url(#df2b3ca1e5)"><path fill="#e3d9c2" d="M 7.460938 630.609375 L 8.3125 653.175781 L 4.101562 653.757812 L 4.503906 630.71875 Z M 99.71875 665.597656 C 102.484375 665.597656 104.726562 663.355469 104.726562 660.585938 C 104.726562 657.820312 102.484375 655.574219 99.71875 655.574219 C 96.949219 655.574219 94.707031 657.820312 94.707031 660.585938 C 94.707031 663.355469 96.949219 665.597656 99.71875 665.597656 Z M 99.71875 665.597656 " fill-opacity="1" fill-rule="nonzero"/></g><path fill="#d11513" d="M 65.589844 717.96875 L 54.398438 795.515625 L 73.519531 797.746094 L 77.609375 713.574219 Z M 65.589844 717.96875 " fill-opacity="1" fill-rule="nonzero"/><path fill="#fc8620" d="M 18.761719 805.378906 L 22.378906 780.066406 L 39.605469 785.316406 L 38.363281 807.765625 Z M 18.761719 805.378906 " fill-opacity="1" fill-rule="nonzero"/><path fill="#e3d9c2" d="M 52.949219 693.753906 L 46.140625 785.164062 L 54.296875 786.117188 L 65.050781 695.164062 Z M 52.949219 693.753906 " fill-opacity="1" fill-rule="nonzero"/><g clip-path="url(#b66a2be0d4)"><path fill="#60a3b9" d="M 39.039062 714.164062 L 40.539062 689.648438 L 45.296875 689.9375 L 43.796875 714.457031 Z M 14.601562 809.429688 L 18.628906 785.199219 L 13.925781 784.414062 L 9.410156 809.535156 Z M 76.769531 777.542969 L 81.246094 774.496094 C 79.445312 771.847656 80.132812 768.246094 82.777344 766.445312 C 85.425781 764.644531 89.03125 765.332031 90.828125 767.976562 L 95.308594 764.929688 C 91.828125 759.808594 84.851562 758.484375 79.730469 761.964844 C 74.613281 765.449219 73.285156 772.421875 76.769531 777.542969 Z M 76.769531 777.542969 " fill-opacity="1" fill-rule="nonzero"/></g></svg>