<svg xmlns="http://www.w3.org/2000/svg" xmlns:xlink="http://www.w3.org/1999/xlink" width="200" zoomAndPan="magnify" viewBox="0 0 150 809.999993" height="1080" preserveAspectRatio="xMidYMid meet" version="1.0"><defs><g/><clipPath id="1ad32893ff"><path d="M 0.00390625 0 L 150 0 L 150 810 L 0.00390625 810 Z M 0.00390625 0 " clip-rule="nonzero"/></clipPath></defs><g clip-path="url(#1ad32893ff)"><path fill="#d11513" d="M 0.00390625 811.859375 L 0.00390625 0.109375 L 151.46875 0.109375 L 151.46875 811.859375 Z M 0.00390625 811.859375 " fill-opacity="1" fill-rule="nonzero"/></g><path stroke-linecap="butt" transform="matrix(0, 0.75, -0.75, 0, 14.816986, 0.000157329)" fill="none" stroke-linejoin="miter" d="M -0.000209772 3.000773 L 1082.48422 3.000773 " stroke="#fc8620" stroke-width="6" stroke-opacity="1" stroke-miterlimit="4"/><g fill="#e3d9c2" fill-opacity="1"><g transform="translate(54.377906, 106.617447)"><g><path d="M 20.203125 -49.796875 L 20.203125 -38.84375 C 20.203125 -37.707031 20.425781 -36.628906 20.875 -35.609375 C 21.332031 -34.585938 21.925781 -33.695312 22.65625 -32.9375 C 23.394531 -32.175781 24.269531 -31.582031 25.28125 -31.15625 C 26.300781 -30.726562 27.382812 -30.515625 28.53125 -30.515625 C 29.664062 -30.515625 30.742188 -30.726562 31.765625 -31.15625 C 32.785156 -31.582031 33.660156 -32.175781 34.390625 -32.9375 C 35.128906 -33.695312 35.722656 -34.585938 36.171875 -35.609375 C 36.617188 -36.628906 36.84375 -37.707031 36.84375 -38.84375 L 36.84375 -49.796875 L 53.421875 -49.796875 L 53.421875 0 L 36.84375 0 L 36.84375 -20.34375 C 35.46875 -19.15625 33.75 -18.226562 31.6875 -17.5625 C 29.625 -16.90625 27.429688 -16.578125 25.109375 -16.578125 C 22.597656 -16.578125 20.050781 -17.003906 17.46875 -17.859375 C 14.882812 -18.710938 12.5625 -20.097656 10.5 -22.015625 C 8.4375 -23.941406 6.765625 -26.421875 5.484375 -29.453125 C 4.203125 -32.484375 3.582031 -36.160156 3.625 -40.484375 L 3.625 -49.796875 Z M 20.203125 -49.796875 "/></g></g></g><g fill="#e3d9c2" fill-opacity="1"><g transform="translate(51.144936, 177.093376)"><g><path d="M 43.328125 -49.796875 L 59.90625 0 L 42.40625 0 L 31.734375 -32.078125 L 21.0625 0 L 3.5625 0 L 20.125 -49.796875 Z M 43.328125 -49.796875 "/></g></g></g><g fill="#e3d9c2" fill-opacity="1"><g transform="translate(58.585003, 247.569305)"><g><path d="M 3.484375 0 L 3.484375 -49.796875 L 44.953125 -49.796875 L 44.953125 -37.34375 L 20.046875 -37.34375 L 20.046875 -31.15625 L 40.828125 -31.15625 L 40.828125 -18.703125 L 20.046875 -18.703125 L 20.046875 -12.453125 L 44.953125 -12.453125 L 44.953125 0 Z M 3.484375 0 "/></g></g></g><g fill="#e3d9c2" fill-opacity="1"><g transform="translate(54.420259, 318.045234)"><g><path d="M 20.046875 -49.796875 L 20.046875 -33.21875 L 36.703125 -33.21875 L 36.703125 -49.796875 L 53.28125 -49.796875 L 53.28125 0 L 36.703125 0 L 36.703125 -16.578125 L 20.046875 -16.578125 L 20.046875 0 L 3.484375 0 L 3.484375 -49.796875 Z M 20.046875 -49.796875 "/></g></g></g><g fill="#e3d9c2" fill-opacity="1"><g transform="translate(44.071931, 388.521164)"><g><path d="M 20.125 -49.796875 L 20.125 -41.46875 L 32.578125 -41.46875 C 35.421875 -41.46875 38.113281 -40.921875 40.65625 -39.828125 C 43.195312 -38.742188 45.398438 -37.265625 47.265625 -35.390625 C 49.140625 -33.515625 50.625 -31.320312 51.71875 -28.8125 C 52.8125 -26.300781 53.359375 -23.617188 53.359375 -20.765625 C 53.359375 -17.921875 52.8125 -15.226562 51.71875 -12.6875 C 50.625 -10.15625 49.140625 -7.953125 47.265625 -6.078125 C 45.398438 -4.203125 43.195312 -2.71875 40.65625 -1.625 C 38.113281 -0.539062 35.421875 0 32.578125 0 L 3.5625 0 L 3.5625 -49.796875 Z M 74.0625 -49.796875 L 74.0625 0 L 57.484375 0 L 57.484375 -49.796875 Z M 20.125 -16.578125 L 32.578125 -16.578125 C 33.765625 -16.578125 34.757812 -16.976562 35.5625 -17.78125 C 36.375 -18.59375 36.78125 -19.585938 36.78125 -20.765625 C 36.78125 -21.910156 36.375 -22.882812 35.5625 -23.6875 C 34.757812 -24.5 33.765625 -24.90625 32.578125 -24.90625 L 20.125 -24.90625 Z M 20.125 -16.578125 "/></g></g></g><g fill="#e3d9c2" fill-opacity="1"><g transform="translate(85.465245, 458.997093)"><g/></g></g><g fill="#e3d9c2" fill-opacity="1"><g transform="translate(37.73305, 529.473022)"><g><path d="M 3.5625 0 L 20.125 -24.90625 L 3.5625 -49.796875 L 22.484375 -49.796875 L 36.84375 -28.25 L 36.84375 -49.734375 L 53.421875 -49.734375 L 53.421875 -28.25 L 67.796875 -49.796875 L 86.71875 -49.796875 L 70.140625 -24.90625 L 86.71875 0 L 67.796875 0 L 53.421875 -21.5625 L 53.421875 0 L 36.84375 0 L 36.84375 -21.5625 L 22.484375 0 Z M 3.5625 0 "/></g></g></g><g fill="#e3d9c2" fill-opacity="1"><g transform="translate(42.36368, 599.948951)"><g><path d="M 3.5625 -49.796875 L 20.125 -49.796875 L 20.125 -30.796875 L 24.90625 -30.796875 C 25.5625 -33.785156 26.707031 -36.570312 28.34375 -39.15625 C 29.976562 -41.75 31.945312 -43.976562 34.25 -45.84375 C 36.550781 -47.71875 39.148438 -49.1875 42.046875 -50.25 C 44.941406 -51.320312 48 -51.859375 51.21875 -51.859375 C 54.914062 -51.859375 58.398438 -51.144531 61.671875 -49.71875 C 64.953125 -48.300781 67.8125 -46.367188 70.25 -43.921875 C 72.695312 -41.484375 74.628906 -38.613281 76.046875 -35.3125 C 77.472656 -32.019531 78.1875 -28.523438 78.1875 -24.828125 C 78.1875 -21.128906 77.472656 -17.644531 76.046875 -14.375 C 74.628906 -11.101562 72.695312 -8.242188 70.25 -5.796875 C 67.8125 -3.359375 64.953125 -1.425781 61.671875 0 C 58.398438 1.425781 54.914062 2.140625 51.21875 2.140625 C 48 2.140625 44.941406 1.601562 42.046875 0.53125 C 39.148438 -0.53125 36.539062 -2.007812 34.21875 -3.90625 C 31.894531 -5.8125 29.914062 -8.039062 28.28125 -10.59375 C 26.644531 -13.15625 25.492188 -15.957031 24.828125 -19 L 20.125 -19 L 20.125 0 L 3.5625 0 Z M 51.21875 -14.296875 C 52.644531 -14.296875 53.984375 -14.566406 55.234375 -15.109375 C 56.492188 -15.660156 57.597656 -16.410156 58.546875 -17.359375 C 59.492188 -18.304688 60.238281 -19.421875 60.78125 -20.703125 C 61.332031 -21.984375 61.609375 -23.359375 61.609375 -24.828125 C 61.609375 -26.296875 61.332031 -27.671875 60.78125 -28.953125 C 60.238281 -30.234375 59.492188 -31.359375 58.546875 -32.328125 C 57.597656 -33.304688 56.492188 -34.066406 55.234375 -34.609375 C 53.984375 -35.148438 52.644531 -35.421875 51.21875 -35.421875 C 49.800781 -35.421875 48.453125 -35.148438 47.171875 -34.609375 C 45.890625 -34.066406 44.773438 -33.304688 43.828125 -32.328125 C 42.878906 -31.359375 42.128906 -30.234375 41.578125 -28.953125 C 41.035156 -27.671875 40.765625 -26.296875 40.765625 -24.828125 C 40.765625 -23.359375 41.035156 -21.984375 41.578125 -20.703125 C 42.128906 -19.421875 42.878906 -18.304688 43.828125 -17.359375 C 44.773438 -16.410156 45.890625 -15.660156 47.171875 -15.109375 C 48.453125 -14.566406 49.800781 -14.296875 51.21875 -14.296875 Z M 51.21875 -14.296875 "/></g></g></g><g fill="#e3d9c2" fill-opacity="1"><g transform="translate(54.420259, 670.424881)"><g><path d="M 3.484375 0 L 3.484375 -49.796875 L 32.5 -49.796875 C 35.34375 -49.796875 38.035156 -49.25 40.578125 -48.15625 C 43.117188 -47.070312 45.320312 -45.59375 47.1875 -43.71875 C 49.0625 -41.84375 50.546875 -39.632812 51.640625 -37.09375 C 52.734375 -34.5625 53.28125 -31.875 53.28125 -29.03125 C 53.28125 -26.175781 52.734375 -23.492188 51.640625 -20.984375 C 50.546875 -18.472656 49.0625 -16.28125 47.1875 -14.40625 C 45.320312 -12.53125 43.117188 -11.046875 40.578125 -9.953125 C 38.035156 -8.867188 35.34375 -8.328125 32.5 -8.328125 L 20.046875 -8.328125 L 20.046875 0 Z M 20.046875 -24.90625 L 32.5 -24.90625 C 33.6875 -24.90625 34.679688 -25.304688 35.484375 -26.109375 C 36.296875 -26.910156 36.703125 -27.882812 36.703125 -29.03125 C 36.703125 -30.207031 36.296875 -31.195312 35.484375 -32 C 34.679688 -32.8125 33.6875 -33.21875 32.5 -33.21875 L 20.046875 -33.21875 Z M 20.046875 -24.90625 "/></g></g></g><g fill="#e3d9c2" fill-opacity="1"><g transform="translate(54.420259, 740.90081)"><g><path d="M 36.78125 0 L 36.78125 -23.625 L 20.125 0 L 3.5625 0 L 3.5625 -49.796875 L 20.125 -49.796875 L 20.125 -26.1875 L 36.78125 -49.796875 L 53.359375 -49.796875 L 53.359375 0 Z M 36.78125 0 "/></g></g></g></svg>